<?xml version="1.0" encoding="utf-8" standalone="no"?>
<!DOCTYPE svg PUBLIC "-//W3C//DTD SVG 1.1//EN"
  "http://www.w3.org/Graphics/SVG/1.1/DTD/svg11.dtd">
<svg xmlns:xlink="http://www.w3.org/1999/xlink" width="508.514062pt" height="374.715469pt" viewBox="0 0 508.514062 374.715469" xmlns="http://www.w3.org/2000/svg" version="1.1">
 <metadata>
  <rdf:RDF xmlns:dc="http://purl.org/dc/elements/1.1/" xmlns:cc="http://creativecommons.org/ns#" xmlns:rdf="http://www.w3.org/1999/02/22-rdf-syntax-ns#">
   <cc:Work>
    <dc:type rdf:resource="http://purl.org/dc/dcmitype/StillImage"/>
    <dc:date>2024-10-22T20:44:01.145428</dc:date>
    <dc:format>image/svg+xml</dc:format>
    <dc:creator>
     <cc:Agent>
      <dc:title>Matplotlib v3.5.2, https://matplotlib.org/</dc:title>
     </cc:Agent>
    </dc:creator>
   </cc:Work>
  </rdf:RDF>
 </metadata>
 <defs>
  <style type="text/css">*{stroke-linejoin: round; stroke-linecap: butt}</style>
 </defs>
 <g id="figure_1">
  <g id="patch_1">
   <path d="M 0 374.715469 
L 508.514062 374.715469 
L 508.514062 0 
L 0 0 
z
" style="fill: #ffffff"/>
  </g>
  <g id="axes_1">
   <g id="patch_2">
    <path d="M 43.78125 337.159219 
L 490.18125 337.159219 
L 490.18125 10.999219 
L 43.78125 10.999219 
z
" style="fill: #ffffff"/>
   </g>
   <g id="PolyCollection_1">
    <defs>
     <path id="m11fe550857" d="M 66.10125 -363.71625 
L 66.10125 -37.82805 
L 70.384886 -37.942388 
L 74.668523 -38.076749 
L 78.952159 -38.231133 
L 83.235795 -38.405538 
L 87.519432 -38.599966 
L 91.803068 -38.814417 
L 96.086705 -39.04889 
L 100.370341 -39.303385 
L 104.653977 -39.577903 
L 108.937614 -39.872443 
L 113.22125 -40.187006 
L 117.504886 -40.52159 
L 121.788523 -40.876198 
L 126.072159 -41.250828 
L 130.355795 -41.64548 
L 134.639432 -42.060154 
L 138.923068 -42.494851 
L 143.206705 -42.949571 
L 147.490341 -43.424312 
L 151.773977 -43.919077 
L 156.057614 -44.433863 
L 160.34125 -44.968672 
L 164.624886 -45.523504 
L 168.908523 -46.098357 
L 173.192159 -46.693234 
L 177.475795 -47.308132 
L 181.759432 -47.943053 
L 186.043068 -48.597997 
L 190.326705 -49.272963 
L 194.610341 -49.967951 
L 198.893977 -50.682961 
L 203.177614 -51.417995 
L 207.46125 -52.17305 
L 211.744886 -52.948128 
L 216.028523 -53.743228 
L 220.312159 -54.558351 
L 224.595795 -55.393496 
L 228.879432 -56.248663 
L 233.163068 -57.123853 
L 237.446705 -58.019066 
L 241.730341 -58.9343 
L 246.013977 -59.869557 
L 250.297614 -60.824837 
L 254.58125 -61.800139 
L 258.864886 -62.795463 
L 263.148523 -63.81081 
L 267.432159 -64.846179 
L 271.715795 -65.901571 
L 275.999432 -66.976985 
L 280.283068 -68.072421 
L 284.566705 -69.18788 
L 288.850341 -70.323361 
L 293.133977 -71.478865 
L 297.417614 -72.65439 
L 301.70125 -73.849939 
L 305.984886 -75.06551 
L 310.268523 -76.301103 
L 314.552159 -77.556719 
L 318.835795 -78.832357 
L 323.119432 -80.128017 
L 327.403068 -81.4437 
L 331.686705 -82.779405 
L 335.970341 -84.135133 
L 340.253977 -85.510883 
L 344.537614 -86.906655 
L 348.82125 -88.32245 
L 353.104886 -89.758267 
L 357.388523 -91.214107 
L 361.672159 -92.689969 
L 365.955795 -94.185853 
L 370.239432 -95.70176 
L 374.523068 -97.23769 
L 378.806705 -98.793641 
L 383.090341 -100.369615 
L 387.373977 -101.965612 
L 391.657614 -103.581631 
L 395.94125 -105.217672 
L 400.224886 -106.873736 
L 404.508523 -108.549822 
L 408.792159 -110.245931 
L 413.075795 -111.962062 
L 417.359432 -113.698215 
L 421.643068 -115.454391 
L 425.926705 -117.230589 
L 430.210341 -119.026809 
L 434.493977 -120.843052 
L 438.777614 -122.679318 
L 443.06125 -124.535606 
L 447.344886 -126.411916 
L 451.628523 -128.308248 
L 455.912159 -130.224603 
L 460.195795 -132.160981 
L 464.479432 -134.117381 
L 468.763068 -136.093803 
L 473.046705 -138.090247 
L 477.330341 -140.106714 
L 481.613977 -142.143204 
L 485.897614 -144.199716 
L 490.18125 -146.27625 
L 490.18125 -363.71625 
L 490.18125 -363.71625 
L 485.897614 -363.71625 
L 481.613977 -363.71625 
L 477.330341 -363.71625 
L 473.046705 -363.71625 
L 468.763068 -363.71625 
L 464.479432 -363.71625 
L 460.195795 -363.71625 
L 455.912159 -363.71625 
L 451.628523 -363.71625 
L 447.344886 -363.71625 
L 443.06125 -363.71625 
L 438.777614 -363.71625 
L 434.493977 -363.71625 
L 430.210341 -363.71625 
L 425.926705 -363.71625 
L 421.643068 -363.71625 
L 417.359432 -363.71625 
L 413.075795 -363.71625 
L 408.792159 -363.71625 
L 404.508523 -363.71625 
L 400.224886 -363.71625 
L 395.94125 -363.71625 
L 391.657614 -363.71625 
L 387.373977 -363.71625 
L 383.090341 -363.71625 
L 378.806705 -363.71625 
L 374.523068 -363.71625 
L 370.239432 -363.71625 
L 365.955795 -363.71625 
L 361.672159 -363.71625 
L 357.388523 -363.71625 
L 353.104886 -363.71625 
L 348.82125 -363.71625 
L 344.537614 -363.71625 
L 340.253977 -363.71625 
L 335.970341 -363.71625 
L 331.686705 -363.71625 
L 327.403068 -363.71625 
L 323.119432 -363.71625 
L 318.835795 -363.71625 
L 314.552159 -363.71625 
L 310.268523 -363.71625 
L 305.984886 -363.71625 
L 301.70125 -363.71625 
L 297.417614 -363.71625 
L 293.133977 -363.71625 
L 288.850341 -363.71625 
L 284.566705 -363.71625 
L 280.283068 -363.71625 
L 275.999432 -363.71625 
L 271.715795 -363.71625 
L 267.432159 -363.71625 
L 263.148523 -363.71625 
L 258.864886 -363.71625 
L 254.58125 -363.71625 
L 250.297614 -363.71625 
L 246.013977 -363.71625 
L 241.730341 -363.71625 
L 237.446705 -363.71625 
L 233.163068 -363.71625 
L 228.879432 -363.71625 
L 224.595795 -363.71625 
L 220.312159 -363.71625 
L 216.028523 -363.71625 
L 211.744886 -363.71625 
L 207.46125 -363.71625 
L 203.177614 -363.71625 
L 198.893977 -363.71625 
L 194.610341 -363.71625 
L 190.326705 -363.71625 
L 186.043068 -363.71625 
L 181.759432 -363.71625 
L 177.475795 -363.71625 
L 173.192159 -363.71625 
L 168.908523 -363.71625 
L 164.624886 -363.71625 
L 160.34125 -363.71625 
L 156.057614 -363.71625 
L 151.773977 -363.71625 
L 147.490341 -363.71625 
L 143.206705 -363.71625 
L 138.923068 -363.71625 
L 134.639432 -363.71625 
L 130.355795 -363.71625 
L 126.072159 -363.71625 
L 121.788523 -363.71625 
L 117.504886 -363.71625 
L 113.22125 -363.71625 
L 108.937614 -363.71625 
L 104.653977 -363.71625 
L 100.370341 -363.71625 
L 96.086705 -363.71625 
L 91.803068 -363.71625 
L 87.519432 -363.71625 
L 83.235795 -363.71625 
L 78.952159 -363.71625 
L 74.668523 -363.71625 
L 70.384886 -363.71625 
L 66.10125 -363.71625 
z
" style="stroke: #90ee90; stroke-opacity: 0.5"/>
    </defs>
    <g clip-path="url(#pb8f6711645)">
     <use xlink:href="#m11fe550857" x="0" y="374.715469" style="fill: #90ee90; fill-opacity: 0.5; stroke: #90ee90; stroke-opacity: 0.5"/>
    </g>
   </g>
   <g id="matplotlib.axis_1">
    <g id="xtick_1">
     <g id="line2d_1">
      <defs>
       <path id="mb1cea9131f" d="M 0 0 
L 0 3.5 
" style="stroke: #000000; stroke-width: 0.8"/>
      </defs>
      <g>
       <use xlink:href="#mb1cea9131f" x="43.78125" y="337.159219" style="stroke: #000000; stroke-width: 0.8"/>
      </g>
     </g>
     <g id="text_1">
      <!-- 0.00 -->
      <g transform="translate(32.648438 351.757656)scale(0.1 -0.1)">
       <defs>
        <path id="DejaVuSans-30" d="M 2034 4250 
Q 1547 4250 1301 3770 
Q 1056 3291 1056 2328 
Q 1056 1369 1301 889 
Q 1547 409 2034 409 
Q 2525 409 2770 889 
Q 3016 1369 3016 2328 
Q 3016 3291 2770 3770 
Q 2525 4250 2034 4250 
z
M 2034 4750 
Q 2819 4750 3233 4129 
Q 3647 3509 3647 2328 
Q 3647 1150 3233 529 
Q 2819 -91 2034 -91 
Q 1250 -91 836 529 
Q 422 1150 422 2328 
Q 422 3509 836 4129 
Q 1250 4750 2034 4750 
z
" transform="scale(0.015625)"/>
        <path id="DejaVuSans-2e" d="M 684 794 
L 1344 794 
L 1344 0 
L 684 0 
L 684 794 
z
" transform="scale(0.015625)"/>
       </defs>
       <use xlink:href="#DejaVuSans-30"/>
       <use xlink:href="#DejaVuSans-2e" x="63.623047"/>
       <use xlink:href="#DejaVuSans-30" x="95.410156"/>
       <use xlink:href="#DejaVuSans-30" x="159.033203"/>
      </g>
     </g>
    </g>
    <g id="xtick_2">
     <g id="line2d_2">
      <g>
       <use xlink:href="#mb1cea9131f" x="99.58125" y="337.159219" style="stroke: #000000; stroke-width: 0.8"/>
      </g>
     </g>
     <g id="text_2">
      <!-- 0.25 -->
      <g transform="translate(88.448438 351.757656)scale(0.1 -0.1)">
       <defs>
        <path id="DejaVuSans-32" d="M 1228 531 
L 3431 531 
L 3431 0 
L 469 0 
L 469 531 
Q 828 903 1448 1529 
Q 2069 2156 2228 2338 
Q 2531 2678 2651 2914 
Q 2772 3150 2772 3378 
Q 2772 3750 2511 3984 
Q 2250 4219 1831 4219 
Q 1534 4219 1204 4116 
Q 875 4013 500 3803 
L 500 4441 
Q 881 4594 1212 4672 
Q 1544 4750 1819 4750 
Q 2544 4750 2975 4387 
Q 3406 4025 3406 3419 
Q 3406 3131 3298 2873 
Q 3191 2616 2906 2266 
Q 2828 2175 2409 1742 
Q 1991 1309 1228 531 
z
" transform="scale(0.015625)"/>
        <path id="DejaVuSans-35" d="M 691 4666 
L 3169 4666 
L 3169 4134 
L 1269 4134 
L 1269 2991 
Q 1406 3038 1543 3061 
Q 1681 3084 1819 3084 
Q 2600 3084 3056 2656 
Q 3513 2228 3513 1497 
Q 3513 744 3044 326 
Q 2575 -91 1722 -91 
Q 1428 -91 1123 -41 
Q 819 9 494 109 
L 494 744 
Q 775 591 1075 516 
Q 1375 441 1709 441 
Q 2250 441 2565 725 
Q 2881 1009 2881 1497 
Q 2881 1984 2565 2268 
Q 2250 2553 1709 2553 
Q 1456 2553 1204 2497 
Q 953 2441 691 2322 
L 691 4666 
z
" transform="scale(0.015625)"/>
       </defs>
       <use xlink:href="#DejaVuSans-30"/>
       <use xlink:href="#DejaVuSans-2e" x="63.623047"/>
       <use xlink:href="#DejaVuSans-32" x="95.410156"/>
       <use xlink:href="#DejaVuSans-35" x="159.033203"/>
      </g>
     </g>
    </g>
    <g id="xtick_3">
     <g id="line2d_3">
      <g>
       <use xlink:href="#mb1cea9131f" x="155.38125" y="337.159219" style="stroke: #000000; stroke-width: 0.8"/>
      </g>
     </g>
     <g id="text_3">
      <!-- 0.50 -->
      <g transform="translate(144.248438 351.757656)scale(0.1 -0.1)">
       <use xlink:href="#DejaVuSans-30"/>
       <use xlink:href="#DejaVuSans-2e" x="63.623047"/>
       <use xlink:href="#DejaVuSans-35" x="95.410156"/>
       <use xlink:href="#DejaVuSans-30" x="159.033203"/>
      </g>
     </g>
    </g>
    <g id="xtick_4">
     <g id="line2d_4">
      <g>
       <use xlink:href="#mb1cea9131f" x="211.18125" y="337.159219" style="stroke: #000000; stroke-width: 0.8"/>
      </g>
     </g>
     <g id="text_4">
      <!-- 0.75 -->
      <g transform="translate(200.048437 351.757656)scale(0.1 -0.1)">
       <defs>
        <path id="DejaVuSans-37" d="M 525 4666 
L 3525 4666 
L 3525 4397 
L 1831 0 
L 1172 0 
L 2766 4134 
L 525 4134 
L 525 4666 
z
" transform="scale(0.015625)"/>
       </defs>
       <use xlink:href="#DejaVuSans-30"/>
       <use xlink:href="#DejaVuSans-2e" x="63.623047"/>
       <use xlink:href="#DejaVuSans-37" x="95.410156"/>
       <use xlink:href="#DejaVuSans-35" x="159.033203"/>
      </g>
     </g>
    </g>
    <g id="xtick_5">
     <g id="line2d_5">
      <g>
       <use xlink:href="#mb1cea9131f" x="266.98125" y="337.159219" style="stroke: #000000; stroke-width: 0.8"/>
      </g>
     </g>
     <g id="text_5">
      <!-- 1.00 -->
      <g transform="translate(255.848437 351.757656)scale(0.1 -0.1)">
       <defs>
        <path id="DejaVuSans-31" d="M 794 531 
L 1825 531 
L 1825 4091 
L 703 3866 
L 703 4441 
L 1819 4666 
L 2450 4666 
L 2450 531 
L 3481 531 
L 3481 0 
L 794 0 
L 794 531 
z
" transform="scale(0.015625)"/>
       </defs>
       <use xlink:href="#DejaVuSans-31"/>
       <use xlink:href="#DejaVuSans-2e" x="63.623047"/>
       <use xlink:href="#DejaVuSans-30" x="95.410156"/>
       <use xlink:href="#DejaVuSans-30" x="159.033203"/>
      </g>
     </g>
    </g>
    <g id="xtick_6">
     <g id="line2d_6">
      <g>
       <use xlink:href="#mb1cea9131f" x="322.78125" y="337.159219" style="stroke: #000000; stroke-width: 0.8"/>
      </g>
     </g>
     <g id="text_6">
      <!-- 1.25 -->
      <g transform="translate(311.648438 351.757656)scale(0.1 -0.1)">
       <use xlink:href="#DejaVuSans-31"/>
       <use xlink:href="#DejaVuSans-2e" x="63.623047"/>
       <use xlink:href="#DejaVuSans-32" x="95.410156"/>
       <use xlink:href="#DejaVuSans-35" x="159.033203"/>
      </g>
     </g>
    </g>
    <g id="xtick_7">
     <g id="line2d_7">
      <g>
       <use xlink:href="#mb1cea9131f" x="378.58125" y="337.159219" style="stroke: #000000; stroke-width: 0.8"/>
      </g>
     </g>
     <g id="text_7">
      <!-- 1.50 -->
      <g transform="translate(367.448437 351.757656)scale(0.1 -0.1)">
       <use xlink:href="#DejaVuSans-31"/>
       <use xlink:href="#DejaVuSans-2e" x="63.623047"/>
       <use xlink:href="#DejaVuSans-35" x="95.410156"/>
       <use xlink:href="#DejaVuSans-30" x="159.033203"/>
      </g>
     </g>
    </g>
    <g id="xtick_8">
     <g id="line2d_8">
      <g>
       <use xlink:href="#mb1cea9131f" x="434.38125" y="337.159219" style="stroke: #000000; stroke-width: 0.8"/>
      </g>
     </g>
     <g id="text_8">
      <!-- 1.75 -->
      <g transform="translate(423.248437 351.757656)scale(0.1 -0.1)">
       <use xlink:href="#DejaVuSans-31"/>
       <use xlink:href="#DejaVuSans-2e" x="63.623047"/>
       <use xlink:href="#DejaVuSans-37" x="95.410156"/>
       <use xlink:href="#DejaVuSans-35" x="159.033203"/>
      </g>
     </g>
    </g>
    <g id="xtick_9">
     <g id="line2d_9">
      <g>
       <use xlink:href="#mb1cea9131f" x="490.18125" y="337.159219" style="stroke: #000000; stroke-width: 0.8"/>
      </g>
     </g>
     <g id="text_9">
      <!-- 2.00 -->
      <g transform="translate(479.048437 351.757656)scale(0.1 -0.1)">
       <use xlink:href="#DejaVuSans-32"/>
       <use xlink:href="#DejaVuSans-2e" x="63.623047"/>
       <use xlink:href="#DejaVuSans-30" x="95.410156"/>
       <use xlink:href="#DejaVuSans-30" x="159.033203"/>
      </g>
     </g>
    </g>
    <g id="text_10">
     <!-- a (Magnetic field dissipation rate) -->
     <g transform="translate(182.840625 365.435781)scale(0.1 -0.1)">
      <defs>
       <path id="DejaVuSans-61" d="M 2194 1759 
Q 1497 1759 1228 1600 
Q 959 1441 959 1056 
Q 959 750 1161 570 
Q 1363 391 1709 391 
Q 2188 391 2477 730 
Q 2766 1069 2766 1631 
L 2766 1759 
L 2194 1759 
z
M 3341 1997 
L 3341 0 
L 2766 0 
L 2766 531 
Q 2569 213 2275 61 
Q 1981 -91 1556 -91 
Q 1019 -91 701 211 
Q 384 513 384 1019 
Q 384 1609 779 1909 
Q 1175 2209 1959 2209 
L 2766 2209 
L 2766 2266 
Q 2766 2663 2505 2880 
Q 2244 3097 1772 3097 
Q 1472 3097 1187 3025 
Q 903 2953 641 2809 
L 641 3341 
Q 956 3463 1253 3523 
Q 1550 3584 1831 3584 
Q 2591 3584 2966 3190 
Q 3341 2797 3341 1997 
z
" transform="scale(0.015625)"/>
       <path id="DejaVuSans-20" transform="scale(0.015625)"/>
       <path id="DejaVuSans-28" d="M 1984 4856 
Q 1566 4138 1362 3434 
Q 1159 2731 1159 2009 
Q 1159 1288 1364 580 
Q 1569 -128 1984 -844 
L 1484 -844 
Q 1016 -109 783 600 
Q 550 1309 550 2009 
Q 550 2706 781 3412 
Q 1013 4119 1484 4856 
L 1984 4856 
z
" transform="scale(0.015625)"/>
       <path id="DejaVuSans-4d" d="M 628 4666 
L 1569 4666 
L 2759 1491 
L 3956 4666 
L 4897 4666 
L 4897 0 
L 4281 0 
L 4281 4097 
L 3078 897 
L 2444 897 
L 1241 4097 
L 1241 0 
L 628 0 
L 628 4666 
z
" transform="scale(0.015625)"/>
       <path id="DejaVuSans-67" d="M 2906 1791 
Q 2906 2416 2648 2759 
Q 2391 3103 1925 3103 
Q 1463 3103 1205 2759 
Q 947 2416 947 1791 
Q 947 1169 1205 825 
Q 1463 481 1925 481 
Q 2391 481 2648 825 
Q 2906 1169 2906 1791 
z
M 3481 434 
Q 3481 -459 3084 -895 
Q 2688 -1331 1869 -1331 
Q 1566 -1331 1297 -1286 
Q 1028 -1241 775 -1147 
L 775 -588 
Q 1028 -725 1275 -790 
Q 1522 -856 1778 -856 
Q 2344 -856 2625 -561 
Q 2906 -266 2906 331 
L 2906 616 
Q 2728 306 2450 153 
Q 2172 0 1784 0 
Q 1141 0 747 490 
Q 353 981 353 1791 
Q 353 2603 747 3093 
Q 1141 3584 1784 3584 
Q 2172 3584 2450 3431 
Q 2728 3278 2906 2969 
L 2906 3500 
L 3481 3500 
L 3481 434 
z
" transform="scale(0.015625)"/>
       <path id="DejaVuSans-6e" d="M 3513 2113 
L 3513 0 
L 2938 0 
L 2938 2094 
Q 2938 2591 2744 2837 
Q 2550 3084 2163 3084 
Q 1697 3084 1428 2787 
Q 1159 2491 1159 1978 
L 1159 0 
L 581 0 
L 581 3500 
L 1159 3500 
L 1159 2956 
Q 1366 3272 1645 3428 
Q 1925 3584 2291 3584 
Q 2894 3584 3203 3211 
Q 3513 2838 3513 2113 
z
" transform="scale(0.015625)"/>
       <path id="DejaVuSans-65" d="M 3597 1894 
L 3597 1613 
L 953 1613 
Q 991 1019 1311 708 
Q 1631 397 2203 397 
Q 2534 397 2845 478 
Q 3156 559 3463 722 
L 3463 178 
Q 3153 47 2828 -22 
Q 2503 -91 2169 -91 
Q 1331 -91 842 396 
Q 353 884 353 1716 
Q 353 2575 817 3079 
Q 1281 3584 2069 3584 
Q 2775 3584 3186 3129 
Q 3597 2675 3597 1894 
z
M 3022 2063 
Q 3016 2534 2758 2815 
Q 2500 3097 2075 3097 
Q 1594 3097 1305 2825 
Q 1016 2553 972 2059 
L 3022 2063 
z
" transform="scale(0.015625)"/>
       <path id="DejaVuSans-74" d="M 1172 4494 
L 1172 3500 
L 2356 3500 
L 2356 3053 
L 1172 3053 
L 1172 1153 
Q 1172 725 1289 603 
Q 1406 481 1766 481 
L 2356 481 
L 2356 0 
L 1766 0 
Q 1100 0 847 248 
Q 594 497 594 1153 
L 594 3053 
L 172 3053 
L 172 3500 
L 594 3500 
L 594 4494 
L 1172 4494 
z
" transform="scale(0.015625)"/>
       <path id="DejaVuSans-69" d="M 603 3500 
L 1178 3500 
L 1178 0 
L 603 0 
L 603 3500 
z
M 603 4863 
L 1178 4863 
L 1178 4134 
L 603 4134 
L 603 4863 
z
" transform="scale(0.015625)"/>
       <path id="DejaVuSans-63" d="M 3122 3366 
L 3122 2828 
Q 2878 2963 2633 3030 
Q 2388 3097 2138 3097 
Q 1578 3097 1268 2742 
Q 959 2388 959 1747 
Q 959 1106 1268 751 
Q 1578 397 2138 397 
Q 2388 397 2633 464 
Q 2878 531 3122 666 
L 3122 134 
Q 2881 22 2623 -34 
Q 2366 -91 2075 -91 
Q 1284 -91 818 406 
Q 353 903 353 1747 
Q 353 2603 823 3093 
Q 1294 3584 2113 3584 
Q 2378 3584 2631 3529 
Q 2884 3475 3122 3366 
z
" transform="scale(0.015625)"/>
       <path id="DejaVuSans-66" d="M 2375 4863 
L 2375 4384 
L 1825 4384 
Q 1516 4384 1395 4259 
Q 1275 4134 1275 3809 
L 1275 3500 
L 2222 3500 
L 2222 3053 
L 1275 3053 
L 1275 0 
L 697 0 
L 697 3053 
L 147 3053 
L 147 3500 
L 697 3500 
L 697 3744 
Q 697 4328 969 4595 
Q 1241 4863 1831 4863 
L 2375 4863 
z
" transform="scale(0.015625)"/>
       <path id="DejaVuSans-6c" d="M 603 4863 
L 1178 4863 
L 1178 0 
L 603 0 
L 603 4863 
z
" transform="scale(0.015625)"/>
       <path id="DejaVuSans-64" d="M 2906 2969 
L 2906 4863 
L 3481 4863 
L 3481 0 
L 2906 0 
L 2906 525 
Q 2725 213 2448 61 
Q 2172 -91 1784 -91 
Q 1150 -91 751 415 
Q 353 922 353 1747 
Q 353 2572 751 3078 
Q 1150 3584 1784 3584 
Q 2172 3584 2448 3432 
Q 2725 3281 2906 2969 
z
M 947 1747 
Q 947 1113 1208 752 
Q 1469 391 1925 391 
Q 2381 391 2643 752 
Q 2906 1113 2906 1747 
Q 2906 2381 2643 2742 
Q 2381 3103 1925 3103 
Q 1469 3103 1208 2742 
Q 947 2381 947 1747 
z
" transform="scale(0.015625)"/>
       <path id="DejaVuSans-73" d="M 2834 3397 
L 2834 2853 
Q 2591 2978 2328 3040 
Q 2066 3103 1784 3103 
Q 1356 3103 1142 2972 
Q 928 2841 928 2578 
Q 928 2378 1081 2264 
Q 1234 2150 1697 2047 
L 1894 2003 
Q 2506 1872 2764 1633 
Q 3022 1394 3022 966 
Q 3022 478 2636 193 
Q 2250 -91 1575 -91 
Q 1294 -91 989 -36 
Q 684 19 347 128 
L 347 722 
Q 666 556 975 473 
Q 1284 391 1588 391 
Q 1994 391 2212 530 
Q 2431 669 2431 922 
Q 2431 1156 2273 1281 
Q 2116 1406 1581 1522 
L 1381 1569 
Q 847 1681 609 1914 
Q 372 2147 372 2553 
Q 372 3047 722 3315 
Q 1072 3584 1716 3584 
Q 2034 3584 2315 3537 
Q 2597 3491 2834 3397 
z
" transform="scale(0.015625)"/>
       <path id="DejaVuSans-70" d="M 1159 525 
L 1159 -1331 
L 581 -1331 
L 581 3500 
L 1159 3500 
L 1159 2969 
Q 1341 3281 1617 3432 
Q 1894 3584 2278 3584 
Q 2916 3584 3314 3078 
Q 3713 2572 3713 1747 
Q 3713 922 3314 415 
Q 2916 -91 2278 -91 
Q 1894 -91 1617 61 
Q 1341 213 1159 525 
z
M 3116 1747 
Q 3116 2381 2855 2742 
Q 2594 3103 2138 3103 
Q 1681 3103 1420 2742 
Q 1159 2381 1159 1747 
Q 1159 1113 1420 752 
Q 1681 391 2138 391 
Q 2594 391 2855 752 
Q 3116 1113 3116 1747 
z
" transform="scale(0.015625)"/>
       <path id="DejaVuSans-6f" d="M 1959 3097 
Q 1497 3097 1228 2736 
Q 959 2375 959 1747 
Q 959 1119 1226 758 
Q 1494 397 1959 397 
Q 2419 397 2687 759 
Q 2956 1122 2956 1747 
Q 2956 2369 2687 2733 
Q 2419 3097 1959 3097 
z
M 1959 3584 
Q 2709 3584 3137 3096 
Q 3566 2609 3566 1747 
Q 3566 888 3137 398 
Q 2709 -91 1959 -91 
Q 1206 -91 779 398 
Q 353 888 353 1747 
Q 353 2609 779 3096 
Q 1206 3584 1959 3584 
z
" transform="scale(0.015625)"/>
       <path id="DejaVuSans-72" d="M 2631 2963 
Q 2534 3019 2420 3045 
Q 2306 3072 2169 3072 
Q 1681 3072 1420 2755 
Q 1159 2438 1159 1844 
L 1159 0 
L 581 0 
L 581 3500 
L 1159 3500 
L 1159 2956 
Q 1341 3275 1631 3429 
Q 1922 3584 2338 3584 
Q 2397 3584 2469 3576 
Q 2541 3569 2628 3553 
L 2631 2963 
z
" transform="scale(0.015625)"/>
       <path id="DejaVuSans-29" d="M 513 4856 
L 1013 4856 
Q 1481 4119 1714 3412 
Q 1947 2706 1947 2009 
Q 1947 1309 1714 600 
Q 1481 -109 1013 -844 
L 513 -844 
Q 928 -128 1133 580 
Q 1338 1288 1338 2009 
Q 1338 2731 1133 3434 
Q 928 4138 513 4856 
z
" transform="scale(0.015625)"/>
      </defs>
      <use xlink:href="#DejaVuSans-61"/>
      <use xlink:href="#DejaVuSans-20" x="61.279297"/>
      <use xlink:href="#DejaVuSans-28" x="93.066406"/>
      <use xlink:href="#DejaVuSans-4d" x="132.080078"/>
      <use xlink:href="#DejaVuSans-61" x="218.359375"/>
      <use xlink:href="#DejaVuSans-67" x="279.638672"/>
      <use xlink:href="#DejaVuSans-6e" x="343.115234"/>
      <use xlink:href="#DejaVuSans-65" x="406.494141"/>
      <use xlink:href="#DejaVuSans-74" x="468.017578"/>
      <use xlink:href="#DejaVuSans-69" x="507.226562"/>
      <use xlink:href="#DejaVuSans-63" x="535.009766"/>
      <use xlink:href="#DejaVuSans-20" x="589.990234"/>
      <use xlink:href="#DejaVuSans-66" x="621.777344"/>
      <use xlink:href="#DejaVuSans-69" x="656.982422"/>
      <use xlink:href="#DejaVuSans-65" x="684.765625"/>
      <use xlink:href="#DejaVuSans-6c" x="746.289062"/>
      <use xlink:href="#DejaVuSans-64" x="774.072266"/>
      <use xlink:href="#DejaVuSans-20" x="837.548828"/>
      <use xlink:href="#DejaVuSans-64" x="869.335938"/>
      <use xlink:href="#DejaVuSans-69" x="932.8125"/>
      <use xlink:href="#DejaVuSans-73" x="960.595703"/>
      <use xlink:href="#DejaVuSans-73" x="1012.695312"/>
      <use xlink:href="#DejaVuSans-69" x="1064.794922"/>
      <use xlink:href="#DejaVuSans-70" x="1092.578125"/>
      <use xlink:href="#DejaVuSans-61" x="1156.054688"/>
      <use xlink:href="#DejaVuSans-74" x="1217.333984"/>
      <use xlink:href="#DejaVuSans-69" x="1256.542969"/>
      <use xlink:href="#DejaVuSans-6f" x="1284.326172"/>
      <use xlink:href="#DejaVuSans-6e" x="1345.507812"/>
      <use xlink:href="#DejaVuSans-20" x="1408.886719"/>
      <use xlink:href="#DejaVuSans-72" x="1440.673828"/>
      <use xlink:href="#DejaVuSans-61" x="1481.787109"/>
      <use xlink:href="#DejaVuSans-74" x="1543.066406"/>
      <use xlink:href="#DejaVuSans-65" x="1582.275391"/>
      <use xlink:href="#DejaVuSans-29" x="1643.798828"/>
     </g>
    </g>
   </g>
   <g id="matplotlib.axis_2">
    <g id="ytick_1">
     <g id="line2d_10">
      <defs>
       <path id="mba1440213a" d="M 0 0 
L -3.5 0 
" style="stroke: #000000; stroke-width: 0.8"/>
      </defs>
      <g>
       <use xlink:href="#mba1440213a" x="43.78125" y="337.159219" style="stroke: #000000; stroke-width: 0.8"/>
      </g>
     </g>
     <g id="text_11">
      <!-- 0.0 -->
      <g transform="translate(20.878125 340.958437)scale(0.1 -0.1)">
       <use xlink:href="#DejaVuSans-30"/>
       <use xlink:href="#DejaVuSans-2e" x="63.623047"/>
       <use xlink:href="#DejaVuSans-30" x="95.410156"/>
      </g>
     </g>
    </g>
    <g id="ytick_2">
     <g id="line2d_11">
      <g>
       <use xlink:href="#mba1440213a" x="43.78125" y="282.799219" style="stroke: #000000; stroke-width: 0.8"/>
      </g>
     </g>
     <g id="text_12">
      <!-- 0.5 -->
      <g transform="translate(20.878125 286.598437)scale(0.1 -0.1)">
       <use xlink:href="#DejaVuSans-30"/>
       <use xlink:href="#DejaVuSans-2e" x="63.623047"/>
       <use xlink:href="#DejaVuSans-35" x="95.410156"/>
      </g>
     </g>
    </g>
    <g id="ytick_3">
     <g id="line2d_12">
      <g>
       <use xlink:href="#mba1440213a" x="43.78125" y="228.439219" style="stroke: #000000; stroke-width: 0.8"/>
      </g>
     </g>
     <g id="text_13">
      <!-- 1.0 -->
      <g transform="translate(20.878125 232.238437)scale(0.1 -0.1)">
       <use xlink:href="#DejaVuSans-31"/>
       <use xlink:href="#DejaVuSans-2e" x="63.623047"/>
       <use xlink:href="#DejaVuSans-30" x="95.410156"/>
      </g>
     </g>
    </g>
    <g id="ytick_4">
     <g id="line2d_13">
      <g>
       <use xlink:href="#mba1440213a" x="43.78125" y="174.079219" style="stroke: #000000; stroke-width: 0.8"/>
      </g>
     </g>
     <g id="text_14">
      <!-- 1.5 -->
      <g transform="translate(20.878125 177.878437)scale(0.1 -0.1)">
       <use xlink:href="#DejaVuSans-31"/>
       <use xlink:href="#DejaVuSans-2e" x="63.623047"/>
       <use xlink:href="#DejaVuSans-35" x="95.410156"/>
      </g>
     </g>
    </g>
    <g id="ytick_5">
     <g id="line2d_14">
      <g>
       <use xlink:href="#mba1440213a" x="43.78125" y="119.719219" style="stroke: #000000; stroke-width: 0.8"/>
      </g>
     </g>
     <g id="text_15">
      <!-- 2.0 -->
      <g transform="translate(20.878125 123.518437)scale(0.1 -0.1)">
       <use xlink:href="#DejaVuSans-32"/>
       <use xlink:href="#DejaVuSans-2e" x="63.623047"/>
       <use xlink:href="#DejaVuSans-30" x="95.410156"/>
      </g>
     </g>
    </g>
    <g id="ytick_6">
     <g id="line2d_15">
      <g>
       <use xlink:href="#mba1440213a" x="43.78125" y="65.359219" style="stroke: #000000; stroke-width: 0.8"/>
      </g>
     </g>
     <g id="text_16">
      <!-- 2.5 -->
      <g transform="translate(20.878125 69.158437)scale(0.1 -0.1)">
       <use xlink:href="#DejaVuSans-32"/>
       <use xlink:href="#DejaVuSans-2e" x="63.623047"/>
       <use xlink:href="#DejaVuSans-35" x="95.410156"/>
      </g>
     </g>
    </g>
    <g id="ytick_7">
     <g id="line2d_16">
      <g>
       <use xlink:href="#mba1440213a" x="43.78125" y="10.999219" style="stroke: #000000; stroke-width: 0.8"/>
      </g>
     </g>
     <g id="text_17">
      <!-- 3.0 -->
      <g transform="translate(20.878125 14.798437)scale(0.1 -0.1)">
       <defs>
        <path id="DejaVuSans-33" d="M 2597 2516 
Q 3050 2419 3304 2112 
Q 3559 1806 3559 1356 
Q 3559 666 3084 287 
Q 2609 -91 1734 -91 
Q 1441 -91 1130 -33 
Q 819 25 488 141 
L 488 750 
Q 750 597 1062 519 
Q 1375 441 1716 441 
Q 2309 441 2620 675 
Q 2931 909 2931 1356 
Q 2931 1769 2642 2001 
Q 2353 2234 1838 2234 
L 1294 2234 
L 1294 2753 
L 1863 2753 
Q 2328 2753 2575 2939 
Q 2822 3125 2822 3475 
Q 2822 3834 2567 4026 
Q 2313 4219 1838 4219 
Q 1578 4219 1281 4162 
Q 984 4106 628 3988 
L 628 4550 
Q 988 4650 1302 4700 
Q 1616 4750 1894 4750 
Q 2613 4750 3031 4423 
Q 3450 4097 3450 3541 
Q 3450 3153 3228 2886 
Q 3006 2619 2597 2516 
z
" transform="scale(0.015625)"/>
       </defs>
       <use xlink:href="#DejaVuSans-33"/>
       <use xlink:href="#DejaVuSans-2e" x="63.623047"/>
       <use xlink:href="#DejaVuSans-30" x="95.410156"/>
      </g>
     </g>
    </g>
    <g id="text_18">
     <!-- c (Driving of plasma flows) -->
     <g transform="translate(14.798438 240.960469)rotate(-90)scale(0.1 -0.1)">
      <defs>
       <path id="DejaVuSans-44" d="M 1259 4147 
L 1259 519 
L 2022 519 
Q 2988 519 3436 956 
Q 3884 1394 3884 2338 
Q 3884 3275 3436 3711 
Q 2988 4147 2022 4147 
L 1259 4147 
z
M 628 4666 
L 1925 4666 
Q 3281 4666 3915 4102 
Q 4550 3538 4550 2338 
Q 4550 1131 3912 565 
Q 3275 0 1925 0 
L 628 0 
L 628 4666 
z
" transform="scale(0.015625)"/>
       <path id="DejaVuSans-76" d="M 191 3500 
L 800 3500 
L 1894 563 
L 2988 3500 
L 3597 3500 
L 2284 0 
L 1503 0 
L 191 3500 
z
" transform="scale(0.015625)"/>
       <path id="DejaVuSans-6d" d="M 3328 2828 
Q 3544 3216 3844 3400 
Q 4144 3584 4550 3584 
Q 5097 3584 5394 3201 
Q 5691 2819 5691 2113 
L 5691 0 
L 5113 0 
L 5113 2094 
Q 5113 2597 4934 2840 
Q 4756 3084 4391 3084 
Q 3944 3084 3684 2787 
Q 3425 2491 3425 1978 
L 3425 0 
L 2847 0 
L 2847 2094 
Q 2847 2600 2669 2842 
Q 2491 3084 2119 3084 
Q 1678 3084 1418 2786 
Q 1159 2488 1159 1978 
L 1159 0 
L 581 0 
L 581 3500 
L 1159 3500 
L 1159 2956 
Q 1356 3278 1631 3431 
Q 1906 3584 2284 3584 
Q 2666 3584 2933 3390 
Q 3200 3197 3328 2828 
z
" transform="scale(0.015625)"/>
       <path id="DejaVuSans-77" d="M 269 3500 
L 844 3500 
L 1563 769 
L 2278 3500 
L 2956 3500 
L 3675 769 
L 4391 3500 
L 4966 3500 
L 4050 0 
L 3372 0 
L 2619 2869 
L 1863 0 
L 1184 0 
L 269 3500 
z
" transform="scale(0.015625)"/>
      </defs>
      <use xlink:href="#DejaVuSans-63"/>
      <use xlink:href="#DejaVuSans-20" x="54.980469"/>
      <use xlink:href="#DejaVuSans-28" x="86.767578"/>
      <use xlink:href="#DejaVuSans-44" x="125.78125"/>
      <use xlink:href="#DejaVuSans-72" x="202.783203"/>
      <use xlink:href="#DejaVuSans-69" x="243.896484"/>
      <use xlink:href="#DejaVuSans-76" x="271.679688"/>
      <use xlink:href="#DejaVuSans-69" x="330.859375"/>
      <use xlink:href="#DejaVuSans-6e" x="358.642578"/>
      <use xlink:href="#DejaVuSans-67" x="422.021484"/>
      <use xlink:href="#DejaVuSans-20" x="485.498047"/>
      <use xlink:href="#DejaVuSans-6f" x="517.285156"/>
      <use xlink:href="#DejaVuSans-66" x="578.466797"/>
      <use xlink:href="#DejaVuSans-20" x="613.671875"/>
      <use xlink:href="#DejaVuSans-70" x="645.458984"/>
      <use xlink:href="#DejaVuSans-6c" x="708.935547"/>
      <use xlink:href="#DejaVuSans-61" x="736.71875"/>
      <use xlink:href="#DejaVuSans-73" x="797.998047"/>
      <use xlink:href="#DejaVuSans-6d" x="850.097656"/>
      <use xlink:href="#DejaVuSans-61" x="947.509766"/>
      <use xlink:href="#DejaVuSans-20" x="1008.789062"/>
      <use xlink:href="#DejaVuSans-66" x="1040.576172"/>
      <use xlink:href="#DejaVuSans-6c" x="1075.78125"/>
      <use xlink:href="#DejaVuSans-6f" x="1103.564453"/>
      <use xlink:href="#DejaVuSans-77" x="1164.746094"/>
      <use xlink:href="#DejaVuSans-73" x="1246.533203"/>
      <use xlink:href="#DejaVuSans-29" x="1298.632812"/>
     </g>
    </g>
   </g>
   <g id="line2d_17">
    <path d="M 66.10125 336.887419 
L 70.384886 336.77308 
L 74.668523 336.638719 
L 78.952159 336.484336 
L 83.235795 336.30993 
L 87.519432 336.115502 
L 91.803068 335.901052 
L 96.086705 335.666579 
L 100.370341 335.412084 
L 104.653977 335.137566 
L 108.937614 334.843026 
L 113.22125 334.528463 
L 117.504886 334.193878 
L 121.788523 333.839271 
L 126.072159 333.464641 
L 130.355795 333.069989 
L 134.639432 332.655314 
L 138.923068 332.220617 
L 143.206705 331.765898 
L 147.490341 331.291156 
L 151.773977 330.796392 
L 156.057614 330.281606 
L 160.34125 329.746797 
L 164.624886 329.191965 
L 168.908523 328.617111 
L 173.192159 328.022235 
L 177.475795 327.407336 
L 181.759432 326.772415 
L 186.043068 326.117472 
L 190.326705 325.442506 
L 194.610341 324.747518 
L 198.893977 324.032507 
L 203.177614 323.297474 
L 207.46125 322.542419 
L 211.744886 321.767341 
L 216.028523 320.972241 
L 220.312159 320.157118 
L 224.595795 319.321973 
L 228.879432 318.466805 
L 233.163068 317.591615 
L 237.446705 316.696403 
L 241.730341 315.781168 
L 246.013977 314.845911 
L 250.297614 313.890632 
L 254.58125 312.91533 
L 258.864886 311.920006 
L 263.148523 310.904659 
L 267.432159 309.86929 
L 271.715795 308.813898 
L 275.999432 307.738484 
L 280.283068 306.643048 
L 284.566705 305.527589 
L 288.850341 304.392108 
L 293.133977 303.236604 
L 297.417614 302.061078 
L 301.70125 300.86553 
L 305.984886 299.649959 
L 310.268523 298.414366 
L 314.552159 297.15875 
L 318.835795 295.883112 
L 323.119432 294.587452 
L 327.403068 293.271769 
L 331.686705 291.936064 
L 335.970341 290.580336 
L 340.253977 289.204586 
L 344.537614 287.808814 
L 348.82125 286.393019 
L 353.104886 284.957201 
L 357.388523 283.501362 
L 361.672159 282.0255 
L 365.955795 280.529615 
L 370.239432 279.013708 
L 374.523068 277.477779 
L 378.806705 275.921827 
L 383.090341 274.345853 
L 387.373977 272.749857 
L 391.657614 271.133838 
L 395.94125 269.497797 
L 400.224886 267.841733 
L 404.508523 266.165647 
L 408.792159 264.469538 
L 413.075795 262.753407 
L 417.359432 261.017254 
L 421.643068 259.261078 
L 425.926705 257.48488 
L 430.210341 255.688659 
L 434.493977 253.872416 
L 438.777614 252.036151 
L 443.06125 250.179863 
L 447.344886 248.303553 
L 451.628523 246.40722 
L 455.912159 244.490865 
L 460.195795 242.554488 
L 464.479432 240.598088 
L 468.763068 238.621666 
L 473.046705 236.625221 
L 477.330341 234.608754 
L 481.613977 232.572265 
L 485.897614 230.515753 
L 490.18125 228.439219 
" clip-path="url(#pb8f6711645)" style="fill: none; stroke-dasharray: 5.55,2.4; stroke-dashoffset: 0; stroke: #ff0000; stroke-width: 1.5"/>
   </g>
   <g id="patch_3">
    <path d="M 43.78125 337.159219 
L 43.78125 10.999219 
" style="fill: none; stroke: #000000; stroke-width: 0.8; stroke-linejoin: miter; stroke-linecap: square"/>
   </g>
   <g id="patch_4">
    <path d="M 490.18125 337.159219 
L 490.18125 10.999219 
" style="fill: none; stroke: #000000; stroke-width: 0.8; stroke-linejoin: miter; stroke-linecap: square"/>
   </g>
   <g id="patch_5">
    <path d="M 43.78125 337.159219 
L 490.18125 337.159219 
" style="fill: none; stroke: #000000; stroke-width: 0.8; stroke-linejoin: miter; stroke-linecap: square"/>
   </g>
   <g id="patch_6">
    <path d="M 43.78125 10.999219 
L 490.18125 10.999219 
" style="fill: none; stroke: #000000; stroke-width: 0.8; stroke-linejoin: miter; stroke-linecap: square"/>
   </g>
   <g id="legend_1">
    <g id="patch_7">
     <path d="M 50.78125 53.377344 
L 212.98125 53.377344 
Q 214.98125 53.377344 214.98125 51.377344 
L 214.98125 17.999219 
Q 214.98125 15.999219 212.98125 15.999219 
L 50.78125 15.999219 
Q 48.78125 15.999219 48.78125 17.999219 
L 48.78125 51.377344 
Q 48.78125 53.377344 50.78125 53.377344 
z
" style="fill: #ffffff; opacity: 0.8; stroke: #cccccc; stroke-linejoin: miter"/>
    </g>
    <g id="patch_8">
     <path d="M 52.78125 27.597656 
L 72.78125 27.597656 
L 72.78125 20.597656 
L 52.78125 20.597656 
z
" style="fill: #90ee90; fill-opacity: 0.5; stroke: #90ee90; stroke-opacity: 0.5; stroke-linejoin: miter"/>
    </g>
    <g id="text_19">
     <!-- Stable Region -->
     <g transform="translate(80.78125 27.597656)scale(0.1 -0.1)">
      <defs>
       <path id="DejaVuSans-53" d="M 3425 4513 
L 3425 3897 
Q 3066 4069 2747 4153 
Q 2428 4238 2131 4238 
Q 1616 4238 1336 4038 
Q 1056 3838 1056 3469 
Q 1056 3159 1242 3001 
Q 1428 2844 1947 2747 
L 2328 2669 
Q 3034 2534 3370 2195 
Q 3706 1856 3706 1288 
Q 3706 609 3251 259 
Q 2797 -91 1919 -91 
Q 1588 -91 1214 -16 
Q 841 59 441 206 
L 441 856 
Q 825 641 1194 531 
Q 1563 422 1919 422 
Q 2459 422 2753 634 
Q 3047 847 3047 1241 
Q 3047 1584 2836 1778 
Q 2625 1972 2144 2069 
L 1759 2144 
Q 1053 2284 737 2584 
Q 422 2884 422 3419 
Q 422 4038 858 4394 
Q 1294 4750 2059 4750 
Q 2388 4750 2728 4690 
Q 3069 4631 3425 4513 
z
" transform="scale(0.015625)"/>
       <path id="DejaVuSans-62" d="M 3116 1747 
Q 3116 2381 2855 2742 
Q 2594 3103 2138 3103 
Q 1681 3103 1420 2742 
Q 1159 2381 1159 1747 
Q 1159 1113 1420 752 
Q 1681 391 2138 391 
Q 2594 391 2855 752 
Q 3116 1113 3116 1747 
z
M 1159 2969 
Q 1341 3281 1617 3432 
Q 1894 3584 2278 3584 
Q 2916 3584 3314 3078 
Q 3713 2572 3713 1747 
Q 3713 922 3314 415 
Q 2916 -91 2278 -91 
Q 1894 -91 1617 61 
Q 1341 213 1159 525 
L 1159 0 
L 581 0 
L 581 4863 
L 1159 4863 
L 1159 2969 
z
" transform="scale(0.015625)"/>
       <path id="DejaVuSans-52" d="M 2841 2188 
Q 3044 2119 3236 1894 
Q 3428 1669 3622 1275 
L 4263 0 
L 3584 0 
L 2988 1197 
Q 2756 1666 2539 1819 
Q 2322 1972 1947 1972 
L 1259 1972 
L 1259 0 
L 628 0 
L 628 4666 
L 2053 4666 
Q 2853 4666 3247 4331 
Q 3641 3997 3641 3322 
Q 3641 2881 3436 2590 
Q 3231 2300 2841 2188 
z
M 1259 4147 
L 1259 2491 
L 2053 2491 
Q 2509 2491 2742 2702 
Q 2975 2913 2975 3322 
Q 2975 3731 2742 3939 
Q 2509 4147 2053 4147 
L 1259 4147 
z
" transform="scale(0.015625)"/>
      </defs>
      <use xlink:href="#DejaVuSans-53"/>
      <use xlink:href="#DejaVuSans-74" x="63.476562"/>
      <use xlink:href="#DejaVuSans-61" x="102.685547"/>
      <use xlink:href="#DejaVuSans-62" x="163.964844"/>
      <use xlink:href="#DejaVuSans-6c" x="227.441406"/>
      <use xlink:href="#DejaVuSans-65" x="255.224609"/>
      <use xlink:href="#DejaVuSans-20" x="316.748047"/>
      <use xlink:href="#DejaVuSans-52" x="348.535156"/>
      <use xlink:href="#DejaVuSans-65" x="413.517578"/>
      <use xlink:href="#DejaVuSans-67" x="475.041016"/>
      <use xlink:href="#DejaVuSans-69" x="538.517578"/>
      <use xlink:href="#DejaVuSans-6f" x="566.300781"/>
      <use xlink:href="#DejaVuSans-6e" x="627.482422"/>
     </g>
    </g>
    <g id="line2d_18">
     <path d="M 52.78125 41.977344 
L 62.78125 41.977344 
L 72.78125 41.977344 
" style="fill: none; stroke-dasharray: 5.55,2.4; stroke-dashoffset: 0; stroke: #ff0000; stroke-width: 1.5"/>
    </g>
    <g id="text_20">
     <!-- $c = \frac{a^2}{4}$ (Stability Boundary) -->
     <g transform="translate(80.78125 45.477344)scale(0.1 -0.1)">
      <defs>
       <path id="DejaVuSans-Oblique-63" d="M 3431 3366 
L 3316 2797 
Q 3109 2947 2876 3022 
Q 2644 3097 2394 3097 
Q 2119 3097 1870 3000 
Q 1622 2903 1453 2725 
Q 1184 2453 1037 2087 
Q 891 1722 891 1331 
Q 891 859 1127 628 
Q 1363 397 1844 397 
Q 2081 397 2348 469 
Q 2616 541 2906 684 
L 2797 116 
Q 2547 13 2283 -39 
Q 2019 -91 1741 -91 
Q 1044 -91 669 257 
Q 294 606 294 1253 
Q 294 1797 489 2255 
Q 684 2713 1069 3078 
Q 1331 3328 1684 3456 
Q 2038 3584 2456 3584 
Q 2700 3584 2940 3529 
Q 3181 3475 3431 3366 
z
" transform="scale(0.015625)"/>
       <path id="DejaVuSans-3d" d="M 678 2906 
L 4684 2906 
L 4684 2381 
L 678 2381 
L 678 2906 
z
M 678 1631 
L 4684 1631 
L 4684 1100 
L 678 1100 
L 678 1631 
z
" transform="scale(0.015625)"/>
       <path id="DejaVuSans-Oblique-61" d="M 3438 1997 
L 3047 0 
L 2472 0 
L 2578 531 
Q 2325 219 2001 64 
Q 1678 -91 1281 -91 
Q 834 -91 548 182 
Q 263 456 263 884 
Q 263 1497 752 1853 
Q 1241 2209 2100 2209 
L 2900 2209 
L 2931 2363 
Q 2938 2388 2941 2417 
Q 2944 2447 2944 2509 
Q 2944 2788 2717 2942 
Q 2491 3097 2081 3097 
Q 1800 3097 1504 3025 
Q 1209 2953 897 2809 
L 997 3341 
Q 1322 3463 1633 3523 
Q 1944 3584 2234 3584 
Q 2853 3584 3176 3315 
Q 3500 3047 3500 2534 
Q 3500 2431 3484 2292 
Q 3469 2153 3438 1997 
z
M 2816 1759 
L 2241 1759 
Q 1534 1759 1195 1570 
Q 856 1381 856 984 
Q 856 709 1029 553 
Q 1203 397 1509 397 
Q 1978 397 2328 733 
Q 2678 1069 2791 1631 
L 2816 1759 
z
" transform="scale(0.015625)"/>
       <path id="DejaVuSans-34" d="M 2419 4116 
L 825 1625 
L 2419 1625 
L 2419 4116 
z
M 2253 4666 
L 3047 4666 
L 3047 1625 
L 3713 1625 
L 3713 1100 
L 3047 1100 
L 3047 0 
L 2419 0 
L 2419 1100 
L 313 1100 
L 313 1709 
L 2253 4666 
z
" transform="scale(0.015625)"/>
       <path id="DejaVuSans-79" d="M 2059 -325 
Q 1816 -950 1584 -1140 
Q 1353 -1331 966 -1331 
L 506 -1331 
L 506 -850 
L 844 -850 
Q 1081 -850 1212 -737 
Q 1344 -625 1503 -206 
L 1606 56 
L 191 3500 
L 800 3500 
L 1894 763 
L 2988 3500 
L 3597 3500 
L 2059 -325 
z
" transform="scale(0.015625)"/>
       <path id="DejaVuSans-42" d="M 1259 2228 
L 1259 519 
L 2272 519 
Q 2781 519 3026 730 
Q 3272 941 3272 1375 
Q 3272 1813 3026 2020 
Q 2781 2228 2272 2228 
L 1259 2228 
z
M 1259 4147 
L 1259 2741 
L 2194 2741 
Q 2656 2741 2882 2914 
Q 3109 3088 3109 3444 
Q 3109 3797 2882 3972 
Q 2656 4147 2194 4147 
L 1259 4147 
z
M 628 4666 
L 2241 4666 
Q 2963 4666 3353 4366 
Q 3744 4066 3744 3513 
Q 3744 3084 3544 2831 
Q 3344 2578 2956 2516 
Q 3422 2416 3680 2098 
Q 3938 1781 3938 1306 
Q 3938 681 3513 340 
Q 3088 0 2303 0 
L 628 0 
L 628 4666 
z
" transform="scale(0.015625)"/>
       <path id="DejaVuSans-75" d="M 544 1381 
L 544 3500 
L 1119 3500 
L 1119 1403 
Q 1119 906 1312 657 
Q 1506 409 1894 409 
Q 2359 409 2629 706 
Q 2900 1003 2900 1516 
L 2900 3500 
L 3475 3500 
L 3475 0 
L 2900 0 
L 2900 538 
Q 2691 219 2414 64 
Q 2138 -91 1772 -91 
Q 1169 -91 856 284 
Q 544 659 544 1381 
z
M 1991 3584 
L 1991 3584 
z
" transform="scale(0.015625)"/>
      </defs>
      <use xlink:href="#DejaVuSans-Oblique-63" transform="translate(0 0.04375)"/>
      <use xlink:href="#DejaVuSans-3d" transform="translate(74.462891 0.04375)"/>
      <use xlink:href="#DejaVuSans-Oblique-61" transform="translate(177.734375 44.835938)scale(0.7)"/>
      <use xlink:href="#DejaVuSans-32" transform="translate(223.88481 71.632813)scale(0.49)"/>
      <use xlink:href="#DejaVuSans-34" transform="translate(194.734375 -38.44375)scale(0.7)"/>
      <use xlink:href="#DejaVuSans-20" transform="translate(269.474165 0.04375)"/>
      <use xlink:href="#DejaVuSans-28" transform="translate(301.261275 0.04375)"/>
      <use xlink:href="#DejaVuSans-53" transform="translate(340.274947 0.04375)"/>
      <use xlink:href="#DejaVuSans-74" transform="translate(403.751509 0.04375)"/>
      <use xlink:href="#DejaVuSans-61" transform="translate(442.960493 0.04375)"/>
      <use xlink:href="#DejaVuSans-62" transform="translate(504.23979 0.04375)"/>
      <use xlink:href="#DejaVuSans-69" transform="translate(567.716353 0.04375)"/>
      <use xlink:href="#DejaVuSans-6c" transform="translate(595.499556 0.04375)"/>
      <use xlink:href="#DejaVuSans-69" transform="translate(623.282759 0.04375)"/>
      <use xlink:href="#DejaVuSans-74" transform="translate(651.065962 0.04375)"/>
      <use xlink:href="#DejaVuSans-79" transform="translate(690.274947 0.04375)"/>
      <use xlink:href="#DejaVuSans-20" transform="translate(749.454634 0.04375)"/>
      <use xlink:href="#DejaVuSans-42" transform="translate(781.241743 0.04375)"/>
      <use xlink:href="#DejaVuSans-6f" transform="translate(849.845259 0.04375)"/>
      <use xlink:href="#DejaVuSans-75" transform="translate(911.0269 0.04375)"/>
      <use xlink:href="#DejaVuSans-6e" transform="translate(974.405806 0.04375)"/>
      <use xlink:href="#DejaVuSans-64" transform="translate(1037.784712 0.04375)"/>
      <use xlink:href="#DejaVuSans-61" transform="translate(1101.261275 0.04375)"/>
      <use xlink:href="#DejaVuSans-72" transform="translate(1162.540572 0.04375)"/>
      <use xlink:href="#DejaVuSans-79" transform="translate(1203.653853 0.04375)"/>
      <use xlink:href="#DejaVuSans-29" transform="translate(1262.83354 0.04375)"/>
      <path d="M 177.734375 18.840625 
L 177.734375 25.090625 
L 256.974165 25.090625 
L 256.974165 18.840625 
L 177.734375 18.840625 
z
"/>
     </g>
    </g>
   </g>
  </g>
 </g>
 <defs>
  <clipPath id="pb8f6711645">
   <rect x="43.78125" y="10.999219" width="446.4" height="326.16"/>
  </clipPath>
 </defs>
</svg>
