<?xml version="1.0" encoding="utf-8" standalone="no"?>
<!DOCTYPE svg PUBLIC "-//W3C//DTD SVG 1.1//EN"
  "http://www.w3.org/Graphics/SVG/1.1/DTD/svg11.dtd">
<svg xmlns:xlink="http://www.w3.org/1999/xlink" width="856.38125pt" height="423.274375pt" viewBox="0 0 856.38125 423.274375" xmlns="http://www.w3.org/2000/svg" version="1.1">
 <metadata>
  <rdf:RDF xmlns:dc="http://purl.org/dc/elements/1.1/" xmlns:cc="http://creativecommons.org/ns#" xmlns:rdf="http://www.w3.org/1999/02/22-rdf-syntax-ns#">
   <cc:Work>
    <dc:type rdf:resource="http://purl.org/dc/dcmitype/StillImage"/>
    <dc:date>2024-10-22T20:57:54.165756</dc:date>
    <dc:format>image/svg+xml</dc:format>
    <dc:creator>
     <cc:Agent>
      <dc:title>Matplotlib v3.5.2, https://matplotlib.org/</dc:title>
     </cc:Agent>
    </dc:creator>
   </cc:Work>
  </rdf:RDF>
 </metadata>
 <defs>
  <style type="text/css">*{stroke-linejoin: round; stroke-linecap: butt}</style>
 </defs>
 <g id="figure_1">
  <g id="patch_1">
   <path d="M 0 423.274375 
L 856.38125 423.274375 
L 856.38125 0 
L 0 0 
z
" style="fill: #ffffff"/>
  </g>
  <g id="axes_1">
   <g id="patch_2">
    <path d="M 43.78125 385.718125 
L 419.39375 385.718125 
L 419.39375 22.318125 
L 43.78125 22.318125 
z
" style="fill: #ffffff"/>
   </g>
   <g id="matplotlib.axis_1">
    <g id="xtick_1">
     <g id="line2d_1">
      <defs>
       <path id="mc32a09e299" d="M 0 0 
L 0 3.5 
" style="stroke: #000000; stroke-width: 0.8"/>
      </defs>
      <g>
       <use xlink:href="#mc32a09e299" x="60.854545" y="385.718125" style="stroke: #000000; stroke-width: 0.8"/>
      </g>
     </g>
     <g id="text_1">
      <!-- 0 -->
      <g transform="translate(57.673295 400.316562)scale(0.1 -0.1)">
       <defs>
        <path id="DejaVuSans-30" d="M 2034 4250 
Q 1547 4250 1301 3770 
Q 1056 3291 1056 2328 
Q 1056 1369 1301 889 
Q 1547 409 2034 409 
Q 2525 409 2770 889 
Q 3016 1369 3016 2328 
Q 3016 3291 2770 3770 
Q 2525 4250 2034 4250 
z
M 2034 4750 
Q 2819 4750 3233 4129 
Q 3647 3509 3647 2328 
Q 3647 1150 3233 529 
Q 2819 -91 2034 -91 
Q 1250 -91 836 529 
Q 422 1150 422 2328 
Q 422 3509 836 4129 
Q 1250 4750 2034 4750 
z
" transform="scale(0.015625)"/>
       </defs>
       <use xlink:href="#DejaVuSans-30"/>
      </g>
     </g>
    </g>
    <g id="xtick_2">
     <g id="line2d_2">
      <g>
       <use xlink:href="#mc32a09e299" x="129.147727" y="385.718125" style="stroke: #000000; stroke-width: 0.8"/>
      </g>
     </g>
     <g id="text_2">
      <!-- 2 -->
      <g transform="translate(125.966477 400.316562)scale(0.1 -0.1)">
       <defs>
        <path id="DejaVuSans-32" d="M 1228 531 
L 3431 531 
L 3431 0 
L 469 0 
L 469 531 
Q 828 903 1448 1529 
Q 2069 2156 2228 2338 
Q 2531 2678 2651 2914 
Q 2772 3150 2772 3378 
Q 2772 3750 2511 3984 
Q 2250 4219 1831 4219 
Q 1534 4219 1204 4116 
Q 875 4013 500 3803 
L 500 4441 
Q 881 4594 1212 4672 
Q 1544 4750 1819 4750 
Q 2544 4750 2975 4387 
Q 3406 4025 3406 3419 
Q 3406 3131 3298 2873 
Q 3191 2616 2906 2266 
Q 2828 2175 2409 1742 
Q 1991 1309 1228 531 
z
" transform="scale(0.015625)"/>
       </defs>
       <use xlink:href="#DejaVuSans-32"/>
      </g>
     </g>
    </g>
    <g id="xtick_3">
     <g id="line2d_3">
      <g>
       <use xlink:href="#mc32a09e299" x="197.440909" y="385.718125" style="stroke: #000000; stroke-width: 0.8"/>
      </g>
     </g>
     <g id="text_3">
      <!-- 4 -->
      <g transform="translate(194.259659 400.316562)scale(0.1 -0.1)">
       <defs>
        <path id="DejaVuSans-34" d="M 2419 4116 
L 825 1625 
L 2419 1625 
L 2419 4116 
z
M 2253 4666 
L 3047 4666 
L 3047 1625 
L 3713 1625 
L 3713 1100 
L 3047 1100 
L 3047 0 
L 2419 0 
L 2419 1100 
L 313 1100 
L 313 1709 
L 2253 4666 
z
" transform="scale(0.015625)"/>
       </defs>
       <use xlink:href="#DejaVuSans-34"/>
      </g>
     </g>
    </g>
    <g id="xtick_4">
     <g id="line2d_4">
      <g>
       <use xlink:href="#mc32a09e299" x="265.734091" y="385.718125" style="stroke: #000000; stroke-width: 0.8"/>
      </g>
     </g>
     <g id="text_4">
      <!-- 6 -->
      <g transform="translate(262.552841 400.316562)scale(0.1 -0.1)">
       <defs>
        <path id="DejaVuSans-36" d="M 2113 2584 
Q 1688 2584 1439 2293 
Q 1191 2003 1191 1497 
Q 1191 994 1439 701 
Q 1688 409 2113 409 
Q 2538 409 2786 701 
Q 3034 994 3034 1497 
Q 3034 2003 2786 2293 
Q 2538 2584 2113 2584 
z
M 3366 4563 
L 3366 3988 
Q 3128 4100 2886 4159 
Q 2644 4219 2406 4219 
Q 1781 4219 1451 3797 
Q 1122 3375 1075 2522 
Q 1259 2794 1537 2939 
Q 1816 3084 2150 3084 
Q 2853 3084 3261 2657 
Q 3669 2231 3669 1497 
Q 3669 778 3244 343 
Q 2819 -91 2113 -91 
Q 1303 -91 875 529 
Q 447 1150 447 2328 
Q 447 3434 972 4092 
Q 1497 4750 2381 4750 
Q 2619 4750 2861 4703 
Q 3103 4656 3366 4563 
z
" transform="scale(0.015625)"/>
       </defs>
       <use xlink:href="#DejaVuSans-36"/>
      </g>
     </g>
    </g>
    <g id="xtick_5">
     <g id="line2d_5">
      <g>
       <use xlink:href="#mc32a09e299" x="334.027273" y="385.718125" style="stroke: #000000; stroke-width: 0.8"/>
      </g>
     </g>
     <g id="text_5">
      <!-- 8 -->
      <g transform="translate(330.846023 400.316562)scale(0.1 -0.1)">
       <defs>
        <path id="DejaVuSans-38" d="M 2034 2216 
Q 1584 2216 1326 1975 
Q 1069 1734 1069 1313 
Q 1069 891 1326 650 
Q 1584 409 2034 409 
Q 2484 409 2743 651 
Q 3003 894 3003 1313 
Q 3003 1734 2745 1975 
Q 2488 2216 2034 2216 
z
M 1403 2484 
Q 997 2584 770 2862 
Q 544 3141 544 3541 
Q 544 4100 942 4425 
Q 1341 4750 2034 4750 
Q 2731 4750 3128 4425 
Q 3525 4100 3525 3541 
Q 3525 3141 3298 2862 
Q 3072 2584 2669 2484 
Q 3125 2378 3379 2068 
Q 3634 1759 3634 1313 
Q 3634 634 3220 271 
Q 2806 -91 2034 -91 
Q 1263 -91 848 271 
Q 434 634 434 1313 
Q 434 1759 690 2068 
Q 947 2378 1403 2484 
z
M 1172 3481 
Q 1172 3119 1398 2916 
Q 1625 2713 2034 2713 
Q 2441 2713 2670 2916 
Q 2900 3119 2900 3481 
Q 2900 3844 2670 4047 
Q 2441 4250 2034 4250 
Q 1625 4250 1398 4047 
Q 1172 3844 1172 3481 
z
" transform="scale(0.015625)"/>
       </defs>
       <use xlink:href="#DejaVuSans-38"/>
      </g>
     </g>
    </g>
    <g id="xtick_6">
     <g id="line2d_6">
      <g>
       <use xlink:href="#mc32a09e299" x="402.320455" y="385.718125" style="stroke: #000000; stroke-width: 0.8"/>
      </g>
     </g>
     <g id="text_6">
      <!-- 10 -->
      <g transform="translate(395.957955 400.316562)scale(0.1 -0.1)">
       <defs>
        <path id="DejaVuSans-31" d="M 794 531 
L 1825 531 
L 1825 4091 
L 703 3866 
L 703 4441 
L 1819 4666 
L 2450 4666 
L 2450 531 
L 3481 531 
L 3481 0 
L 794 0 
L 794 531 
z
" transform="scale(0.015625)"/>
       </defs>
       <use xlink:href="#DejaVuSans-31"/>
       <use xlink:href="#DejaVuSans-30" x="63.623047"/>
      </g>
     </g>
    </g>
    <g id="text_7">
     <!-- Time -->
     <g transform="translate(219.353906 413.994687)scale(0.1 -0.1)">
      <defs>
       <path id="DejaVuSans-54" d="M -19 4666 
L 3928 4666 
L 3928 4134 
L 2272 4134 
L 2272 0 
L 1638 0 
L 1638 4134 
L -19 4134 
L -19 4666 
z
" transform="scale(0.015625)"/>
       <path id="DejaVuSans-69" d="M 603 3500 
L 1178 3500 
L 1178 0 
L 603 0 
L 603 3500 
z
M 603 4863 
L 1178 4863 
L 1178 4134 
L 603 4134 
L 603 4863 
z
" transform="scale(0.015625)"/>
       <path id="DejaVuSans-6d" d="M 3328 2828 
Q 3544 3216 3844 3400 
Q 4144 3584 4550 3584 
Q 5097 3584 5394 3201 
Q 5691 2819 5691 2113 
L 5691 0 
L 5113 0 
L 5113 2094 
Q 5113 2597 4934 2840 
Q 4756 3084 4391 3084 
Q 3944 3084 3684 2787 
Q 3425 2491 3425 1978 
L 3425 0 
L 2847 0 
L 2847 2094 
Q 2847 2600 2669 2842 
Q 2491 3084 2119 3084 
Q 1678 3084 1418 2786 
Q 1159 2488 1159 1978 
L 1159 0 
L 581 0 
L 581 3500 
L 1159 3500 
L 1159 2956 
Q 1356 3278 1631 3431 
Q 1906 3584 2284 3584 
Q 2666 3584 2933 3390 
Q 3200 3197 3328 2828 
z
" transform="scale(0.015625)"/>
       <path id="DejaVuSans-65" d="M 3597 1894 
L 3597 1613 
L 953 1613 
Q 991 1019 1311 708 
Q 1631 397 2203 397 
Q 2534 397 2845 478 
Q 3156 559 3463 722 
L 3463 178 
Q 3153 47 2828 -22 
Q 2503 -91 2169 -91 
Q 1331 -91 842 396 
Q 353 884 353 1716 
Q 353 2575 817 3079 
Q 1281 3584 2069 3584 
Q 2775 3584 3186 3129 
Q 3597 2675 3597 1894 
z
M 3022 2063 
Q 3016 2534 2758 2815 
Q 2500 3097 2075 3097 
Q 1594 3097 1305 2825 
Q 1016 2553 972 2059 
L 3022 2063 
z
" transform="scale(0.015625)"/>
      </defs>
      <use xlink:href="#DejaVuSans-54"/>
      <use xlink:href="#DejaVuSans-69" x="57.958984"/>
      <use xlink:href="#DejaVuSans-6d" x="85.742188"/>
      <use xlink:href="#DejaVuSans-65" x="183.154297"/>
     </g>
    </g>
   </g>
   <g id="matplotlib.axis_2">
    <g id="ytick_1">
     <g id="line2d_7">
      <defs>
       <path id="mf4cb666037" d="M 0 0 
L -3.5 0 
" style="stroke: #000000; stroke-width: 0.8"/>
      </defs>
      <g>
       <use xlink:href="#mf4cb666037" x="43.78125" y="369.199943" style="stroke: #000000; stroke-width: 0.8"/>
      </g>
     </g>
     <g id="text_8">
      <!-- 0.1 -->
      <g transform="translate(20.878125 372.999162)scale(0.1 -0.1)">
       <defs>
        <path id="DejaVuSans-2e" d="M 684 794 
L 1344 794 
L 1344 0 
L 684 0 
L 684 794 
z
" transform="scale(0.015625)"/>
       </defs>
       <use xlink:href="#DejaVuSans-30"/>
       <use xlink:href="#DejaVuSans-2e" x="63.623047"/>
       <use xlink:href="#DejaVuSans-31" x="95.410156"/>
      </g>
     </g>
    </g>
    <g id="ytick_2">
     <g id="line2d_8">
      <g>
       <use xlink:href="#mf4cb666037" x="43.78125" y="290.067581" style="stroke: #000000; stroke-width: 0.8"/>
      </g>
     </g>
     <g id="text_9">
      <!-- 0.2 -->
      <g transform="translate(20.878125 293.8668)scale(0.1 -0.1)">
       <use xlink:href="#DejaVuSans-30"/>
       <use xlink:href="#DejaVuSans-2e" x="63.623047"/>
       <use xlink:href="#DejaVuSans-32" x="95.410156"/>
      </g>
     </g>
    </g>
    <g id="ytick_3">
     <g id="line2d_9">
      <g>
       <use xlink:href="#mf4cb666037" x="43.78125" y="210.935219" style="stroke: #000000; stroke-width: 0.8"/>
      </g>
     </g>
     <g id="text_10">
      <!-- 0.3 -->
      <g transform="translate(20.878125 214.734437)scale(0.1 -0.1)">
       <defs>
        <path id="DejaVuSans-33" d="M 2597 2516 
Q 3050 2419 3304 2112 
Q 3559 1806 3559 1356 
Q 3559 666 3084 287 
Q 2609 -91 1734 -91 
Q 1441 -91 1130 -33 
Q 819 25 488 141 
L 488 750 
Q 750 597 1062 519 
Q 1375 441 1716 441 
Q 2309 441 2620 675 
Q 2931 909 2931 1356 
Q 2931 1769 2642 2001 
Q 2353 2234 1838 2234 
L 1294 2234 
L 1294 2753 
L 1863 2753 
Q 2328 2753 2575 2939 
Q 2822 3125 2822 3475 
Q 2822 3834 2567 4026 
Q 2313 4219 1838 4219 
Q 1578 4219 1281 4162 
Q 984 4106 628 3988 
L 628 4550 
Q 988 4650 1302 4700 
Q 1616 4750 1894 4750 
Q 2613 4750 3031 4423 
Q 3450 4097 3450 3541 
Q 3450 3153 3228 2886 
Q 3006 2619 2597 2516 
z
" transform="scale(0.015625)"/>
       </defs>
       <use xlink:href="#DejaVuSans-30"/>
       <use xlink:href="#DejaVuSans-2e" x="63.623047"/>
       <use xlink:href="#DejaVuSans-33" x="95.410156"/>
      </g>
     </g>
    </g>
    <g id="ytick_4">
     <g id="line2d_10">
      <g>
       <use xlink:href="#mf4cb666037" x="43.78125" y="131.802856" style="stroke: #000000; stroke-width: 0.8"/>
      </g>
     </g>
     <g id="text_11">
      <!-- 0.4 -->
      <g transform="translate(20.878125 135.602075)scale(0.1 -0.1)">
       <use xlink:href="#DejaVuSans-30"/>
       <use xlink:href="#DejaVuSans-2e" x="63.623047"/>
       <use xlink:href="#DejaVuSans-34" x="95.410156"/>
      </g>
     </g>
    </g>
    <g id="ytick_5">
     <g id="line2d_11">
      <g>
       <use xlink:href="#mf4cb666037" x="43.78125" y="52.670494" style="stroke: #000000; stroke-width: 0.8"/>
      </g>
     </g>
     <g id="text_12">
      <!-- 0.5 -->
      <g transform="translate(20.878125 56.469713)scale(0.1 -0.1)">
       <defs>
        <path id="DejaVuSans-35" d="M 691 4666 
L 3169 4666 
L 3169 4134 
L 1269 4134 
L 1269 2991 
Q 1406 3038 1543 3061 
Q 1681 3084 1819 3084 
Q 2600 3084 3056 2656 
Q 3513 2228 3513 1497 
Q 3513 744 3044 326 
Q 2575 -91 1722 -91 
Q 1428 -91 1123 -41 
Q 819 9 494 109 
L 494 744 
Q 775 591 1075 516 
Q 1375 441 1709 441 
Q 2250 441 2565 725 
Q 2881 1009 2881 1497 
Q 2881 1984 2565 2268 
Q 2250 2553 1709 2553 
Q 1456 2553 1204 2497 
Q 953 2441 691 2322 
L 691 4666 
z
" transform="scale(0.015625)"/>
       </defs>
       <use xlink:href="#DejaVuSans-30"/>
       <use xlink:href="#DejaVuSans-2e" x="63.623047"/>
       <use xlink:href="#DejaVuSans-35" x="95.410156"/>
      </g>
     </g>
    </g>
    <g id="text_13">
     <!-- Values -->
     <g transform="translate(14.798438 220.354062)rotate(-90)scale(0.1 -0.1)">
      <defs>
       <path id="DejaVuSans-56" d="M 1831 0 
L 50 4666 
L 709 4666 
L 2188 738 
L 3669 4666 
L 4325 4666 
L 2547 0 
L 1831 0 
z
" transform="scale(0.015625)"/>
       <path id="DejaVuSans-61" d="M 2194 1759 
Q 1497 1759 1228 1600 
Q 959 1441 959 1056 
Q 959 750 1161 570 
Q 1363 391 1709 391 
Q 2188 391 2477 730 
Q 2766 1069 2766 1631 
L 2766 1759 
L 2194 1759 
z
M 3341 1997 
L 3341 0 
L 2766 0 
L 2766 531 
Q 2569 213 2275 61 
Q 1981 -91 1556 -91 
Q 1019 -91 701 211 
Q 384 513 384 1019 
Q 384 1609 779 1909 
Q 1175 2209 1959 2209 
L 2766 2209 
L 2766 2266 
Q 2766 2663 2505 2880 
Q 2244 3097 1772 3097 
Q 1472 3097 1187 3025 
Q 903 2953 641 2809 
L 641 3341 
Q 956 3463 1253 3523 
Q 1550 3584 1831 3584 
Q 2591 3584 2966 3190 
Q 3341 2797 3341 1997 
z
" transform="scale(0.015625)"/>
       <path id="DejaVuSans-6c" d="M 603 4863 
L 1178 4863 
L 1178 0 
L 603 0 
L 603 4863 
z
" transform="scale(0.015625)"/>
       <path id="DejaVuSans-75" d="M 544 1381 
L 544 3500 
L 1119 3500 
L 1119 1403 
Q 1119 906 1312 657 
Q 1506 409 1894 409 
Q 2359 409 2629 706 
Q 2900 1003 2900 1516 
L 2900 3500 
L 3475 3500 
L 3475 0 
L 2900 0 
L 2900 538 
Q 2691 219 2414 64 
Q 2138 -91 1772 -91 
Q 1169 -91 856 284 
Q 544 659 544 1381 
z
M 1991 3584 
L 1991 3584 
z
" transform="scale(0.015625)"/>
       <path id="DejaVuSans-73" d="M 2834 3397 
L 2834 2853 
Q 2591 2978 2328 3040 
Q 2066 3103 1784 3103 
Q 1356 3103 1142 2972 
Q 928 2841 928 2578 
Q 928 2378 1081 2264 
Q 1234 2150 1697 2047 
L 1894 2003 
Q 2506 1872 2764 1633 
Q 3022 1394 3022 966 
Q 3022 478 2636 193 
Q 2250 -91 1575 -91 
Q 1294 -91 989 -36 
Q 684 19 347 128 
L 347 722 
Q 666 556 975 473 
Q 1284 391 1588 391 
Q 1994 391 2212 530 
Q 2431 669 2431 922 
Q 2431 1156 2273 1281 
Q 2116 1406 1581 1522 
L 1381 1569 
Q 847 1681 609 1914 
Q 372 2147 372 2553 
Q 372 3047 722 3315 
Q 1072 3584 1716 3584 
Q 2034 3584 2315 3537 
Q 2597 3491 2834 3397 
z
" transform="scale(0.015625)"/>
      </defs>
      <use xlink:href="#DejaVuSans-56"/>
      <use xlink:href="#DejaVuSans-61" x="60.658203"/>
      <use xlink:href="#DejaVuSans-6c" x="121.9375"/>
      <use xlink:href="#DejaVuSans-75" x="149.720703"/>
      <use xlink:href="#DejaVuSans-65" x="213.099609"/>
      <use xlink:href="#DejaVuSans-73" x="274.623047"/>
     </g>
    </g>
   </g>
   <g id="line2d_12">
    <path d="M 60.854545 369.199943 
L 64.303696 369.058935 
L 67.752847 368.646951 
L 71.201997 367.976234 
L 74.651148 367.051488 
L 78.100298 365.876903 
L 81.549449 364.456241 
L 84.9986 362.792835 
L 88.44775 360.889591 
L 91.896901 358.748984 
L 95.346051 356.373064 
L 98.795202 353.76345 
L 102.244353 350.921333 
L 105.693503 347.848656 
L 109.142654 344.548336 
L 112.591804 341.010255 
L 116.040955 337.223909 
L 119.490106 333.180272 
L 122.939256 328.871792 
L 126.388407 324.292396 
L 129.837557 319.437489 
L 133.286708 314.30395 
L 136.735859 308.890137 
L 140.185009 303.195885 
L 143.63416 297.222506 
L 147.08331 290.972787 
L 150.532461 284.450994 
L 153.981612 277.661047 
L 157.430762 270.596617 
L 160.879913 263.254747 
L 164.329063 255.63668 
L 167.778214 247.747162 
L 171.227365 239.594437 
L 174.676515 231.190247 
L 178.125666 222.549836 
L 181.574816 213.691946 
L 185.023967 204.638819 
L 188.473118 195.416195 
L 191.922268 186.053315 
L 195.371419 176.582919 
L 198.820569 167.041247 
L 202.26972 157.460985 
L 205.718871 147.870358 
L 209.168021 138.334788 
L 212.617172 128.920432 
L 216.066322 119.691096 
L 219.515473 110.708234 
L 222.964624 102.030946 
L 226.413774 93.71598 
L 229.862925 85.817734 
L 233.312075 78.388251 
L 236.761226 71.477223 
L 240.210376 65.131989 
L 243.659527 59.397537 
L 247.108678 54.316502 
L 250.557828 49.929166 
L 254.006979 46.269736 
L 257.456129 43.344542 
L 260.90528 41.150897 
L 264.354431 39.679999 
L 267.803581 38.916061 
L 271.252732 38.836307 
L 274.701882 39.410976 
L 278.151033 40.603321 
L 281.600184 42.369609 
L 285.049334 44.65912 
L 288.498485 47.414147 
L 291.947635 50.57 
L 295.396786 54.057945 
L 298.845937 57.833452 
L 302.295087 61.841832 
L 305.744238 66.026011 
L 309.193388 70.332322 
L 312.642539 74.710506 
L 316.09169 79.113712 
L 319.54084 83.4985 
L 322.989991 87.824833 
L 326.439141 92.056087 
L 329.888292 96.159043 
L 333.337443 100.103891 
L 336.786593 103.867784 
L 340.235744 107.455362 
L 343.684894 110.848603 
L 347.134045 114.026448 
L 350.583196 116.971718 
L 354.032346 119.671116 
L 357.481497 122.115223 
L 360.930647 124.298504 
L 364.379798 126.219304 
L 367.828949 127.879848 
L 371.278099 129.286244 
L 374.72725 130.448478 
L 378.1764 131.380419 
L 381.625551 132.099816 
L 385.074702 132.628299 
L 388.523852 132.981266 
L 391.973003 133.139853 
L 395.422153 133.109797 
L 398.871304 132.900531 
L 402.320455 132.521938 
" clip-path="url(#pe50d71250c)" style="fill: none; stroke-dasharray: 5.55,2.4; stroke-dashoffset: 0; stroke: #0000ff; stroke-width: 1.5"/>
   </g>
   <g id="line2d_13">
    <path d="M 60.854545 250.5014 
L 64.303696 236.67493 
L 67.752847 223.582733 
L 71.201997 211.23197 
L 74.651148 199.618872 
L 78.100298 188.736238 
L 81.549449 178.573508 
L 84.9986 169.116763 
L 88.44775 160.348729 
L 91.896901 152.248771 
L 95.346051 144.792899 
L 98.795202 137.953762 
L 102.244353 131.700653 
L 105.693503 126.000134 
L 109.142654 120.822992 
L 112.591804 116.142883 
L 116.040955 111.934927 
L 119.490106 108.175989 
L 122.939256 104.844679 
L 126.388407 101.921351 
L 129.837557 99.388104 
L 133.286708 97.228782 
L 136.735859 95.428973 
L 140.185009 93.976011 
L 143.63416 92.858974 
L 147.08331 92.068684 
L 150.532461 91.597709 
L 153.981612 91.439409 
L 157.430762 91.585544 
L 160.879913 92.03348 
L 164.329063 92.782205 
L 167.778214 93.83171 
L 171.227365 95.182988 
L 174.676515 96.838039 
L 178.125666 98.799864 
L 181.574816 101.072469 
L 185.023967 103.660863 
L 188.473118 106.571057 
L 191.922268 109.81007 
L 195.371419 113.38592 
L 198.820569 117.307632 
L 202.26972 121.584975 
L 205.718871 126.219096 
L 209.168021 131.200198 
L 212.617172 136.515676 
L 216.066322 142.150448 
L 219.515473 148.086955 
L 222.964624 154.305163 
L 226.413774 160.782559 
L 229.862925 167.494156 
L 233.312075 174.41249 
L 236.761226 181.50762 
L 240.210376 188.74713 
L 243.659527 196.096125 
L 247.108678 203.517235 
L 250.557828 210.970615 
L 254.006979 218.415627 
L 257.456129 225.797867 
L 260.90528 233.039411 
L 264.354431 240.069458 
L 267.803581 246.826297 
L 271.252732 253.257308 
L 274.701882 259.31896 
L 278.151033 264.976811 
L 281.600184 270.205512 
L 285.049334 274.9888 
L 288.498485 279.319506 
L 291.947635 283.199548 
L 295.396786 286.635496 
L 298.845937 289.594893 
L 302.295087 292.062877 
L 305.744238 294.03829 
L 309.193388 295.525519 
L 312.642539 296.534491 
L 316.09169 297.080678 
L 319.54084 297.185093 
L 322.989991 296.874293 
L 326.439141 296.180377 
L 329.888292 295.140988 
L 333.337443 293.79931 
L 336.786593 292.199955 
L 340.235744 290.353851 
L 343.684894 288.284557 
L 347.134045 286.021403 
L 350.583196 283.593181 
L 354.032346 281.02815 
L 357.481497 278.354032 
L 360.930647 275.598016 
L 364.379798 272.786755 
L 367.828949 269.946365 
L 371.278099 267.10243 
L 374.72725 264.279997 
L 378.1764 261.503579 
L 381.625551 258.797152 
L 385.074702 256.184159 
L 388.523852 253.681008 
L 391.973003 251.281155 
L 395.422153 248.994123 
L 398.871304 246.830105 
L 402.320455 244.797789 
" clip-path="url(#pe50d71250c)" style="fill: none; stroke-dasharray: 5.55,2.4; stroke-dashoffset: 0; stroke: #008000; stroke-width: 1.5"/>
   </g>
   <g id="patch_3">
    <path d="M 43.78125 385.718125 
L 43.78125 22.318125 
" style="fill: none; stroke: #000000; stroke-width: 0.8; stroke-linejoin: miter; stroke-linecap: square"/>
   </g>
   <g id="patch_4">
    <path d="M 419.39375 385.718125 
L 419.39375 22.318125 
" style="fill: none; stroke: #000000; stroke-width: 0.8; stroke-linejoin: miter; stroke-linecap: square"/>
   </g>
   <g id="patch_5">
    <path d="M 43.78125 385.718125 
L 419.39375 385.718125 
" style="fill: none; stroke: #000000; stroke-width: 0.8; stroke-linejoin: miter; stroke-linecap: square"/>
   </g>
   <g id="patch_6">
    <path d="M 43.78125 22.318125 
L 419.39375 22.318125 
" style="fill: none; stroke: #000000; stroke-width: 0.8; stroke-linejoin: miter; stroke-linecap: square"/>
   </g>
   <g id="text_14">
    <!-- Stable Case: B(t) and v(t) -->
    <g transform="translate(155.224375 16.318125)scale(0.12 -0.12)">
     <defs>
      <path id="DejaVuSans-53" d="M 3425 4513 
L 3425 3897 
Q 3066 4069 2747 4153 
Q 2428 4238 2131 4238 
Q 1616 4238 1336 4038 
Q 1056 3838 1056 3469 
Q 1056 3159 1242 3001 
Q 1428 2844 1947 2747 
L 2328 2669 
Q 3034 2534 3370 2195 
Q 3706 1856 3706 1288 
Q 3706 609 3251 259 
Q 2797 -91 1919 -91 
Q 1588 -91 1214 -16 
Q 841 59 441 206 
L 441 856 
Q 825 641 1194 531 
Q 1563 422 1919 422 
Q 2459 422 2753 634 
Q 3047 847 3047 1241 
Q 3047 1584 2836 1778 
Q 2625 1972 2144 2069 
L 1759 2144 
Q 1053 2284 737 2584 
Q 422 2884 422 3419 
Q 422 4038 858 4394 
Q 1294 4750 2059 4750 
Q 2388 4750 2728 4690 
Q 3069 4631 3425 4513 
z
" transform="scale(0.015625)"/>
      <path id="DejaVuSans-74" d="M 1172 4494 
L 1172 3500 
L 2356 3500 
L 2356 3053 
L 1172 3053 
L 1172 1153 
Q 1172 725 1289 603 
Q 1406 481 1766 481 
L 2356 481 
L 2356 0 
L 1766 0 
Q 1100 0 847 248 
Q 594 497 594 1153 
L 594 3053 
L 172 3053 
L 172 3500 
L 594 3500 
L 594 4494 
L 1172 4494 
z
" transform="scale(0.015625)"/>
      <path id="DejaVuSans-62" d="M 3116 1747 
Q 3116 2381 2855 2742 
Q 2594 3103 2138 3103 
Q 1681 3103 1420 2742 
Q 1159 2381 1159 1747 
Q 1159 1113 1420 752 
Q 1681 391 2138 391 
Q 2594 391 2855 752 
Q 3116 1113 3116 1747 
z
M 1159 2969 
Q 1341 3281 1617 3432 
Q 1894 3584 2278 3584 
Q 2916 3584 3314 3078 
Q 3713 2572 3713 1747 
Q 3713 922 3314 415 
Q 2916 -91 2278 -91 
Q 1894 -91 1617 61 
Q 1341 213 1159 525 
L 1159 0 
L 581 0 
L 581 4863 
L 1159 4863 
L 1159 2969 
z
" transform="scale(0.015625)"/>
      <path id="DejaVuSans-20" transform="scale(0.015625)"/>
      <path id="DejaVuSans-43" d="M 4122 4306 
L 4122 3641 
Q 3803 3938 3442 4084 
Q 3081 4231 2675 4231 
Q 1875 4231 1450 3742 
Q 1025 3253 1025 2328 
Q 1025 1406 1450 917 
Q 1875 428 2675 428 
Q 3081 428 3442 575 
Q 3803 722 4122 1019 
L 4122 359 
Q 3791 134 3420 21 
Q 3050 -91 2638 -91 
Q 1578 -91 968 557 
Q 359 1206 359 2328 
Q 359 3453 968 4101 
Q 1578 4750 2638 4750 
Q 3056 4750 3426 4639 
Q 3797 4528 4122 4306 
z
" transform="scale(0.015625)"/>
      <path id="DejaVuSans-3a" d="M 750 794 
L 1409 794 
L 1409 0 
L 750 0 
L 750 794 
z
M 750 3309 
L 1409 3309 
L 1409 2516 
L 750 2516 
L 750 3309 
z
" transform="scale(0.015625)"/>
      <path id="DejaVuSans-42" d="M 1259 2228 
L 1259 519 
L 2272 519 
Q 2781 519 3026 730 
Q 3272 941 3272 1375 
Q 3272 1813 3026 2020 
Q 2781 2228 2272 2228 
L 1259 2228 
z
M 1259 4147 
L 1259 2741 
L 2194 2741 
Q 2656 2741 2882 2914 
Q 3109 3088 3109 3444 
Q 3109 3797 2882 3972 
Q 2656 4147 2194 4147 
L 1259 4147 
z
M 628 4666 
L 2241 4666 
Q 2963 4666 3353 4366 
Q 3744 4066 3744 3513 
Q 3744 3084 3544 2831 
Q 3344 2578 2956 2516 
Q 3422 2416 3680 2098 
Q 3938 1781 3938 1306 
Q 3938 681 3513 340 
Q 3088 0 2303 0 
L 628 0 
L 628 4666 
z
" transform="scale(0.015625)"/>
      <path id="DejaVuSans-28" d="M 1984 4856 
Q 1566 4138 1362 3434 
Q 1159 2731 1159 2009 
Q 1159 1288 1364 580 
Q 1569 -128 1984 -844 
L 1484 -844 
Q 1016 -109 783 600 
Q 550 1309 550 2009 
Q 550 2706 781 3412 
Q 1013 4119 1484 4856 
L 1984 4856 
z
" transform="scale(0.015625)"/>
      <path id="DejaVuSans-29" d="M 513 4856 
L 1013 4856 
Q 1481 4119 1714 3412 
Q 1947 2706 1947 2009 
Q 1947 1309 1714 600 
Q 1481 -109 1013 -844 
L 513 -844 
Q 928 -128 1133 580 
Q 1338 1288 1338 2009 
Q 1338 2731 1133 3434 
Q 928 4138 513 4856 
z
" transform="scale(0.015625)"/>
      <path id="DejaVuSans-6e" d="M 3513 2113 
L 3513 0 
L 2938 0 
L 2938 2094 
Q 2938 2591 2744 2837 
Q 2550 3084 2163 3084 
Q 1697 3084 1428 2787 
Q 1159 2491 1159 1978 
L 1159 0 
L 581 0 
L 581 3500 
L 1159 3500 
L 1159 2956 
Q 1366 3272 1645 3428 
Q 1925 3584 2291 3584 
Q 2894 3584 3203 3211 
Q 3513 2838 3513 2113 
z
" transform="scale(0.015625)"/>
      <path id="DejaVuSans-64" d="M 2906 2969 
L 2906 4863 
L 3481 4863 
L 3481 0 
L 2906 0 
L 2906 525 
Q 2725 213 2448 61 
Q 2172 -91 1784 -91 
Q 1150 -91 751 415 
Q 353 922 353 1747 
Q 353 2572 751 3078 
Q 1150 3584 1784 3584 
Q 2172 3584 2448 3432 
Q 2725 3281 2906 2969 
z
M 947 1747 
Q 947 1113 1208 752 
Q 1469 391 1925 391 
Q 2381 391 2643 752 
Q 2906 1113 2906 1747 
Q 2906 2381 2643 2742 
Q 2381 3103 1925 3103 
Q 1469 3103 1208 2742 
Q 947 2381 947 1747 
z
" transform="scale(0.015625)"/>
      <path id="DejaVuSans-76" d="M 191 3500 
L 800 3500 
L 1894 563 
L 2988 3500 
L 3597 3500 
L 2284 0 
L 1503 0 
L 191 3500 
z
" transform="scale(0.015625)"/>
     </defs>
     <use xlink:href="#DejaVuSans-53"/>
     <use xlink:href="#DejaVuSans-74" x="63.476562"/>
     <use xlink:href="#DejaVuSans-61" x="102.685547"/>
     <use xlink:href="#DejaVuSans-62" x="163.964844"/>
     <use xlink:href="#DejaVuSans-6c" x="227.441406"/>
     <use xlink:href="#DejaVuSans-65" x="255.224609"/>
     <use xlink:href="#DejaVuSans-20" x="316.748047"/>
     <use xlink:href="#DejaVuSans-43" x="348.535156"/>
     <use xlink:href="#DejaVuSans-61" x="418.359375"/>
     <use xlink:href="#DejaVuSans-73" x="479.638672"/>
     <use xlink:href="#DejaVuSans-65" x="531.738281"/>
     <use xlink:href="#DejaVuSans-3a" x="593.261719"/>
     <use xlink:href="#DejaVuSans-20" x="626.953125"/>
     <use xlink:href="#DejaVuSans-42" x="658.740234"/>
     <use xlink:href="#DejaVuSans-28" x="727.34375"/>
     <use xlink:href="#DejaVuSans-74" x="766.357422"/>
     <use xlink:href="#DejaVuSans-29" x="805.566406"/>
     <use xlink:href="#DejaVuSans-20" x="844.580078"/>
     <use xlink:href="#DejaVuSans-61" x="876.367188"/>
     <use xlink:href="#DejaVuSans-6e" x="937.646484"/>
     <use xlink:href="#DejaVuSans-64" x="1001.025391"/>
     <use xlink:href="#DejaVuSans-20" x="1064.501953"/>
     <use xlink:href="#DejaVuSans-76" x="1096.289062"/>
     <use xlink:href="#DejaVuSans-28" x="1155.46875"/>
     <use xlink:href="#DejaVuSans-74" x="1194.482422"/>
     <use xlink:href="#DejaVuSans-29" x="1233.691406"/>
    </g>
   </g>
   <g id="legend_1">
    <g id="patch_7">
     <path d="M 320.16875 59.674375 
L 412.39375 59.674375 
Q 414.39375 59.674375 414.39375 57.674375 
L 414.39375 29.318125 
Q 414.39375 27.318125 412.39375 27.318125 
L 320.16875 27.318125 
Q 318.16875 27.318125 318.16875 29.318125 
L 318.16875 57.674375 
Q 318.16875 59.674375 320.16875 59.674375 
z
" style="fill: #ffffff; opacity: 0.8; stroke: #cccccc; stroke-linejoin: miter"/>
    </g>
    <g id="line2d_14">
     <path d="M 322.16875 35.416562 
L 332.16875 35.416562 
L 342.16875 35.416562 
" style="fill: none; stroke-dasharray: 5.55,2.4; stroke-dashoffset: 0; stroke: #0000ff; stroke-width: 1.5"/>
    </g>
    <g id="text_15">
     <!-- B(t) - Stable -->
     <g transform="translate(350.16875 38.916562)scale(0.1 -0.1)">
      <defs>
       <path id="DejaVuSans-2d" d="M 313 2009 
L 1997 2009 
L 1997 1497 
L 313 1497 
L 313 2009 
z
" transform="scale(0.015625)"/>
      </defs>
      <use xlink:href="#DejaVuSans-42"/>
      <use xlink:href="#DejaVuSans-28" x="68.603516"/>
      <use xlink:href="#DejaVuSans-74" x="107.617188"/>
      <use xlink:href="#DejaVuSans-29" x="146.826172"/>
      <use xlink:href="#DejaVuSans-20" x="185.839844"/>
      <use xlink:href="#DejaVuSans-2d" x="217.626953"/>
      <use xlink:href="#DejaVuSans-20" x="253.710938"/>
      <use xlink:href="#DejaVuSans-53" x="285.498047"/>
      <use xlink:href="#DejaVuSans-74" x="348.974609"/>
      <use xlink:href="#DejaVuSans-61" x="388.183594"/>
      <use xlink:href="#DejaVuSans-62" x="449.462891"/>
      <use xlink:href="#DejaVuSans-6c" x="512.939453"/>
      <use xlink:href="#DejaVuSans-65" x="540.722656"/>
     </g>
    </g>
    <g id="line2d_15">
     <path d="M 322.16875 50.094687 
L 332.16875 50.094687 
L 342.16875 50.094687 
" style="fill: none; stroke-dasharray: 5.55,2.4; stroke-dashoffset: 0; stroke: #008000; stroke-width: 1.5"/>
    </g>
    <g id="text_16">
     <!-- v(t) - Stable -->
     <g transform="translate(350.16875 53.594687)scale(0.1 -0.1)">
      <use xlink:href="#DejaVuSans-76"/>
      <use xlink:href="#DejaVuSans-28" x="59.179688"/>
      <use xlink:href="#DejaVuSans-74" x="98.193359"/>
      <use xlink:href="#DejaVuSans-29" x="137.402344"/>
      <use xlink:href="#DejaVuSans-20" x="176.416016"/>
      <use xlink:href="#DejaVuSans-2d" x="208.203125"/>
      <use xlink:href="#DejaVuSans-20" x="244.287109"/>
      <use xlink:href="#DejaVuSans-53" x="276.074219"/>
      <use xlink:href="#DejaVuSans-74" x="339.550781"/>
      <use xlink:href="#DejaVuSans-61" x="378.759766"/>
      <use xlink:href="#DejaVuSans-62" x="440.039062"/>
      <use xlink:href="#DejaVuSans-6c" x="503.515625"/>
      <use xlink:href="#DejaVuSans-65" x="531.298828"/>
     </g>
    </g>
   </g>
  </g>
  <g id="axes_2">
   <g id="patch_8">
    <path d="M 473.56875 385.718125 
L 849.18125 385.718125 
L 849.18125 22.318125 
L 473.56875 22.318125 
z
" style="fill: #ffffff"/>
   </g>
   <g id="matplotlib.axis_3">
    <g id="xtick_7">
     <g id="line2d_16">
      <g>
       <use xlink:href="#mc32a09e299" x="490.642045" y="385.718125" style="stroke: #000000; stroke-width: 0.8"/>
      </g>
     </g>
     <g id="text_17">
      <!-- 0 -->
      <g transform="translate(487.460795 400.316562)scale(0.1 -0.1)">
       <use xlink:href="#DejaVuSans-30"/>
      </g>
     </g>
    </g>
    <g id="xtick_8">
     <g id="line2d_17">
      <g>
       <use xlink:href="#mc32a09e299" x="558.935227" y="385.718125" style="stroke: #000000; stroke-width: 0.8"/>
      </g>
     </g>
     <g id="text_18">
      <!-- 2 -->
      <g transform="translate(555.753977 400.316562)scale(0.1 -0.1)">
       <use xlink:href="#DejaVuSans-32"/>
      </g>
     </g>
    </g>
    <g id="xtick_9">
     <g id="line2d_18">
      <g>
       <use xlink:href="#mc32a09e299" x="627.228409" y="385.718125" style="stroke: #000000; stroke-width: 0.8"/>
      </g>
     </g>
     <g id="text_19">
      <!-- 4 -->
      <g transform="translate(624.047159 400.316562)scale(0.1 -0.1)">
       <use xlink:href="#DejaVuSans-34"/>
      </g>
     </g>
    </g>
    <g id="xtick_10">
     <g id="line2d_19">
      <g>
       <use xlink:href="#mc32a09e299" x="695.521591" y="385.718125" style="stroke: #000000; stroke-width: 0.8"/>
      </g>
     </g>
     <g id="text_20">
      <!-- 6 -->
      <g transform="translate(692.340341 400.316562)scale(0.1 -0.1)">
       <use xlink:href="#DejaVuSans-36"/>
      </g>
     </g>
    </g>
    <g id="xtick_11">
     <g id="line2d_20">
      <g>
       <use xlink:href="#mc32a09e299" x="763.814773" y="385.718125" style="stroke: #000000; stroke-width: 0.8"/>
      </g>
     </g>
     <g id="text_21">
      <!-- 8 -->
      <g transform="translate(760.633523 400.316562)scale(0.1 -0.1)">
       <use xlink:href="#DejaVuSans-38"/>
      </g>
     </g>
    </g>
    <g id="xtick_12">
     <g id="line2d_21">
      <g>
       <use xlink:href="#mc32a09e299" x="832.107955" y="385.718125" style="stroke: #000000; stroke-width: 0.8"/>
      </g>
     </g>
     <g id="text_22">
      <!-- 10 -->
      <g transform="translate(825.745455 400.316562)scale(0.1 -0.1)">
       <use xlink:href="#DejaVuSans-31"/>
       <use xlink:href="#DejaVuSans-30" x="63.623047"/>
      </g>
     </g>
    </g>
    <g id="text_23">
     <!-- Time -->
     <g transform="translate(649.141406 413.994687)scale(0.1 -0.1)">
      <use xlink:href="#DejaVuSans-54"/>
      <use xlink:href="#DejaVuSans-69" x="57.958984"/>
      <use xlink:href="#DejaVuSans-6d" x="85.742188"/>
      <use xlink:href="#DejaVuSans-65" x="183.154297"/>
     </g>
    </g>
   </g>
   <g id="matplotlib.axis_4">
    <g id="ytick_6">
     <g id="line2d_22">
      <g>
       <use xlink:href="#mf4cb666037" x="473.56875" y="336.16358" style="stroke: #000000; stroke-width: 0.8"/>
      </g>
     </g>
     <g id="text_24">
      <!-- 0.96 -->
      <g transform="translate(444.303125 339.962798)scale(0.1 -0.1)">
       <defs>
        <path id="DejaVuSans-39" d="M 703 97 
L 703 672 
Q 941 559 1184 500 
Q 1428 441 1663 441 
Q 2288 441 2617 861 
Q 2947 1281 2994 2138 
Q 2813 1869 2534 1725 
Q 2256 1581 1919 1581 
Q 1219 1581 811 2004 
Q 403 2428 403 3163 
Q 403 3881 828 4315 
Q 1253 4750 1959 4750 
Q 2769 4750 3195 4129 
Q 3622 3509 3622 2328 
Q 3622 1225 3098 567 
Q 2575 -91 1691 -91 
Q 1453 -91 1209 -44 
Q 966 3 703 97 
z
M 1959 2075 
Q 2384 2075 2632 2365 
Q 2881 2656 2881 3163 
Q 2881 3666 2632 3958 
Q 2384 4250 1959 4250 
Q 1534 4250 1286 3958 
Q 1038 3666 1038 3163 
Q 1038 2656 1286 2365 
Q 1534 2075 1959 2075 
z
" transform="scale(0.015625)"/>
       </defs>
       <use xlink:href="#DejaVuSans-30"/>
       <use xlink:href="#DejaVuSans-2e" x="63.623047"/>
       <use xlink:href="#DejaVuSans-39" x="95.410156"/>
       <use xlink:href="#DejaVuSans-36" x="159.033203"/>
      </g>
     </g>
    </g>
    <g id="ytick_7">
     <g id="line2d_23">
      <g>
       <use xlink:href="#mf4cb666037" x="473.56875" y="270.090852" style="stroke: #000000; stroke-width: 0.8"/>
      </g>
     </g>
     <g id="text_25">
      <!-- 0.98 -->
      <g transform="translate(444.303125 273.890071)scale(0.1 -0.1)">
       <use xlink:href="#DejaVuSans-30"/>
       <use xlink:href="#DejaVuSans-2e" x="63.623047"/>
       <use xlink:href="#DejaVuSans-39" x="95.410156"/>
       <use xlink:href="#DejaVuSans-38" x="159.033203"/>
      </g>
     </g>
    </g>
    <g id="ytick_8">
     <g id="line2d_24">
      <g>
       <use xlink:href="#mf4cb666037" x="473.56875" y="204.018125" style="stroke: #000000; stroke-width: 0.8"/>
      </g>
     </g>
     <g id="text_26">
      <!-- 1.00 -->
      <g transform="translate(444.303125 207.817344)scale(0.1 -0.1)">
       <use xlink:href="#DejaVuSans-31"/>
       <use xlink:href="#DejaVuSans-2e" x="63.623047"/>
       <use xlink:href="#DejaVuSans-30" x="95.410156"/>
       <use xlink:href="#DejaVuSans-30" x="159.033203"/>
      </g>
     </g>
    </g>
    <g id="ytick_9">
     <g id="line2d_25">
      <g>
       <use xlink:href="#mf4cb666037" x="473.56875" y="137.945398" style="stroke: #000000; stroke-width: 0.8"/>
      </g>
     </g>
     <g id="text_27">
      <!-- 1.02 -->
      <g transform="translate(444.303125 141.744616)scale(0.1 -0.1)">
       <use xlink:href="#DejaVuSans-31"/>
       <use xlink:href="#DejaVuSans-2e" x="63.623047"/>
       <use xlink:href="#DejaVuSans-30" x="95.410156"/>
       <use xlink:href="#DejaVuSans-32" x="159.033203"/>
      </g>
     </g>
    </g>
    <g id="ytick_10">
     <g id="line2d_26">
      <g>
       <use xlink:href="#mf4cb666037" x="473.56875" y="71.87267" style="stroke: #000000; stroke-width: 0.8"/>
      </g>
     </g>
     <g id="text_28">
      <!-- 1.04 -->
      <g transform="translate(444.303125 75.671889)scale(0.1 -0.1)">
       <use xlink:href="#DejaVuSans-31"/>
       <use xlink:href="#DejaVuSans-2e" x="63.623047"/>
       <use xlink:href="#DejaVuSans-30" x="95.410156"/>
       <use xlink:href="#DejaVuSans-34" x="159.033203"/>
      </g>
     </g>
    </g>
    <g id="text_29">
     <!-- Values -->
     <g transform="translate(438.223438 220.354062)rotate(-90)scale(0.1 -0.1)">
      <use xlink:href="#DejaVuSans-56"/>
      <use xlink:href="#DejaVuSans-61" x="60.658203"/>
      <use xlink:href="#DejaVuSans-6c" x="121.9375"/>
      <use xlink:href="#DejaVuSans-75" x="149.720703"/>
      <use xlink:href="#DejaVuSans-65" x="213.099609"/>
      <use xlink:href="#DejaVuSans-73" x="274.623047"/>
     </g>
    </g>
   </g>
   <g id="line2d_27">
    <path d="M 490.642045 204.018125 
L 494.091196 204.018125 
L 497.540347 204.018125 
L 500.989497 204.018125 
L 504.438648 204.018125 
L 507.887798 204.018125 
L 511.336949 204.018125 
L 514.7861 204.018125 
L 518.23525 204.018125 
L 521.684401 204.018125 
L 525.133551 204.018125 
L 528.582702 204.018125 
L 532.031853 204.018125 
L 535.481003 204.018125 
L 538.930154 204.018125 
L 542.379304 204.018125 
L 545.828455 204.018125 
L 549.277606 204.018125 
L 552.726756 204.018125 
L 556.175907 204.018125 
L 559.625057 204.018125 
L 563.074208 204.018125 
L 566.523359 204.018125 
L 569.972509 204.018125 
L 573.42166 204.018125 
L 576.87081 204.018125 
L 580.319961 204.018125 
L 583.769112 204.018125 
L 587.218262 204.018125 
L 590.667413 204.018125 
L 594.116563 204.018125 
L 597.565714 204.018125 
L 601.014865 204.018125 
L 604.464015 204.018125 
L 607.913166 204.018125 
L 611.362316 204.018125 
L 614.811467 204.018125 
L 618.260618 204.018125 
L 621.709768 204.018125 
L 625.158919 204.018125 
L 628.608069 204.018125 
L 632.05722 204.018125 
L 635.506371 204.018125 
L 638.955521 204.018125 
L 642.404672 204.018125 
L 645.853822 204.018125 
L 649.302973 204.018125 
L 652.752124 204.018125 
L 656.201274 204.018125 
L 659.650425 204.018125 
L 663.099575 204.018125 
L 666.548726 204.018125 
L 669.997876 204.018125 
L 673.447027 204.018125 
L 676.896178 204.018125 
L 680.345328 204.018125 
L 683.794479 204.018125 
L 687.243629 204.018125 
L 690.69278 204.018125 
L 694.141931 204.018125 
L 697.591081 204.018125 
L 701.040232 204.018125 
L 704.489382 204.018125 
L 707.938533 204.018125 
L 711.387684 204.018125 
L 714.836834 204.018125 
L 718.285985 204.018125 
L 721.735135 204.018125 
L 725.184286 204.018125 
L 728.633437 204.018125 
L 732.082587 204.018125 
L 735.531738 204.018125 
L 738.980888 204.018125 
L 742.430039 204.018125 
L 745.87919 204.018125 
L 749.32834 204.018125 
L 752.777491 204.018125 
L 756.226641 204.018125 
L 759.675792 204.018125 
L 763.124943 204.018125 
L 766.574093 204.018125 
L 770.023244 204.018125 
L 773.472394 204.018125 
L 776.921545 204.018125 
L 780.370696 204.018125 
L 783.819846 204.018125 
L 787.268997 204.018125 
L 790.718147 204.018125 
L 794.167298 204.018125 
L 797.616449 204.018125 
L 801.065599 204.018125 
L 804.51475 204.018125 
L 807.9639 204.018125 
L 811.413051 204.018125 
L 814.862202 204.018125 
L 818.311352 204.018125 
L 821.760503 204.018125 
L 825.209653 204.018125 
L 828.658804 204.018125 
L 832.107955 204.018125 
" clip-path="url(#p35c27c81fd)" style="fill: none; stroke-dasharray: 5.55,2.4; stroke-dashoffset: 0; stroke: #0000ff; stroke-width: 1.5"/>
   </g>
   <g id="line2d_28">
    <path d="M 490.642045 204.018125 
L 494.091196 204.018125 
L 497.540347 204.018125 
L 500.989497 204.018125 
L 504.438648 204.018125 
L 507.887798 204.018125 
L 511.336949 204.018125 
L 514.7861 204.018125 
L 518.23525 204.018125 
L 521.684401 204.018125 
L 525.133551 204.018125 
L 528.582702 204.018125 
L 532.031853 204.018125 
L 535.481003 204.018125 
L 538.930154 204.018125 
L 542.379304 204.018125 
L 545.828455 204.018125 
L 549.277606 204.018125 
L 552.726756 204.018125 
L 556.175907 204.018125 
L 559.625057 204.018125 
L 563.074208 204.018125 
L 566.523359 204.018125 
L 569.972509 204.018125 
L 573.42166 204.018125 
L 576.87081 204.018125 
L 580.319961 204.018125 
L 583.769112 204.018125 
L 587.218262 204.018125 
L 590.667413 204.018125 
L 594.116563 204.018125 
L 597.565714 204.018125 
L 601.014865 204.018125 
L 604.464015 204.018125 
L 607.913166 204.018125 
L 611.362316 204.018125 
L 614.811467 204.018125 
L 618.260618 204.018125 
L 621.709768 204.018125 
L 625.158919 204.018125 
L 628.608069 204.018125 
L 632.05722 204.018125 
L 635.506371 204.018125 
L 638.955521 204.018125 
L 642.404672 204.018125 
L 645.853822 204.018125 
L 649.302973 204.018125 
L 652.752124 204.018125 
L 656.201274 204.018125 
L 659.650425 204.018125 
L 663.099575 204.018125 
L 666.548726 204.018125 
L 669.997876 204.018125 
L 673.447027 204.018125 
L 676.896178 204.018125 
L 680.345328 204.018125 
L 683.794479 204.018125 
L 687.243629 204.018125 
L 690.69278 204.018125 
L 694.141931 204.018125 
L 697.591081 204.018125 
L 701.040232 204.018125 
L 704.489382 204.018125 
L 707.938533 204.018125 
L 711.387684 204.018125 
L 714.836834 204.018125 
L 718.285985 204.018125 
L 721.735135 204.018125 
L 725.184286 204.018125 
L 728.633437 204.018125 
L 732.082587 204.018125 
L 735.531738 204.018125 
L 738.980888 204.018125 
L 742.430039 204.018125 
L 745.87919 204.018125 
L 749.32834 204.018125 
L 752.777491 204.018125 
L 756.226641 204.018125 
L 759.675792 204.018125 
L 763.124943 204.018125 
L 766.574093 204.018125 
L 770.023244 204.018125 
L 773.472394 204.018125 
L 776.921545 204.018125 
L 780.370696 204.018125 
L 783.819846 204.018125 
L 787.268997 204.018125 
L 790.718147 204.018125 
L 794.167298 204.018125 
L 797.616449 204.018125 
L 801.065599 204.018125 
L 804.51475 204.018125 
L 807.9639 204.018125 
L 811.413051 204.018125 
L 814.862202 204.018125 
L 818.311352 204.018125 
L 821.760503 204.018125 
L 825.209653 204.018125 
L 828.658804 204.018125 
L 832.107955 204.018125 
" clip-path="url(#p35c27c81fd)" style="fill: none; stroke-dasharray: 5.55,2.4; stroke-dashoffset: 0; stroke: #008000; stroke-width: 1.5"/>
   </g>
   <g id="patch_9">
    <path d="M 473.56875 385.718125 
L 473.56875 22.318125 
" style="fill: none; stroke: #000000; stroke-width: 0.8; stroke-linejoin: miter; stroke-linecap: square"/>
   </g>
   <g id="patch_10">
    <path d="M 849.18125 385.718125 
L 849.18125 22.318125 
" style="fill: none; stroke: #000000; stroke-width: 0.8; stroke-linejoin: miter; stroke-linecap: square"/>
   </g>
   <g id="patch_11">
    <path d="M 473.56875 385.718125 
L 849.18125 385.718125 
" style="fill: none; stroke: #000000; stroke-width: 0.8; stroke-linejoin: miter; stroke-linecap: square"/>
   </g>
   <g id="patch_12">
    <path d="M 473.56875 22.318125 
L 849.18125 22.318125 
" style="fill: none; stroke: #000000; stroke-width: 0.8; stroke-linejoin: miter; stroke-linecap: square"/>
   </g>
   <g id="text_30">
    <!-- Unstable Case: B(t) and v(t) -->
    <g transform="translate(577.501563 16.318125)scale(0.12 -0.12)">
     <defs>
      <path id="DejaVuSans-55" d="M 556 4666 
L 1191 4666 
L 1191 1831 
Q 1191 1081 1462 751 
Q 1734 422 2344 422 
Q 2950 422 3222 751 
Q 3494 1081 3494 1831 
L 3494 4666 
L 4128 4666 
L 4128 1753 
Q 4128 841 3676 375 
Q 3225 -91 2344 -91 
Q 1459 -91 1007 375 
Q 556 841 556 1753 
L 556 4666 
z
" transform="scale(0.015625)"/>
     </defs>
     <use xlink:href="#DejaVuSans-55"/>
     <use xlink:href="#DejaVuSans-6e" x="73.193359"/>
     <use xlink:href="#DejaVuSans-73" x="136.572266"/>
     <use xlink:href="#DejaVuSans-74" x="188.671875"/>
     <use xlink:href="#DejaVuSans-61" x="227.880859"/>
     <use xlink:href="#DejaVuSans-62" x="289.160156"/>
     <use xlink:href="#DejaVuSans-6c" x="352.636719"/>
     <use xlink:href="#DejaVuSans-65" x="380.419922"/>
     <use xlink:href="#DejaVuSans-20" x="441.943359"/>
     <use xlink:href="#DejaVuSans-43" x="473.730469"/>
     <use xlink:href="#DejaVuSans-61" x="543.554688"/>
     <use xlink:href="#DejaVuSans-73" x="604.833984"/>
     <use xlink:href="#DejaVuSans-65" x="656.933594"/>
     <use xlink:href="#DejaVuSans-3a" x="718.457031"/>
     <use xlink:href="#DejaVuSans-20" x="752.148438"/>
     <use xlink:href="#DejaVuSans-42" x="783.935547"/>
     <use xlink:href="#DejaVuSans-28" x="852.539062"/>
     <use xlink:href="#DejaVuSans-74" x="891.552734"/>
     <use xlink:href="#DejaVuSans-29" x="930.761719"/>
     <use xlink:href="#DejaVuSans-20" x="969.775391"/>
     <use xlink:href="#DejaVuSans-61" x="1001.5625"/>
     <use xlink:href="#DejaVuSans-6e" x="1062.841797"/>
     <use xlink:href="#DejaVuSans-64" x="1126.220703"/>
     <use xlink:href="#DejaVuSans-20" x="1189.697266"/>
     <use xlink:href="#DejaVuSans-76" x="1221.484375"/>
     <use xlink:href="#DejaVuSans-28" x="1280.664062"/>
     <use xlink:href="#DejaVuSans-74" x="1319.677734"/>
     <use xlink:href="#DejaVuSans-29" x="1358.886719"/>
    </g>
   </g>
   <g id="legend_2">
    <g id="patch_13">
     <path d="M 737.439063 59.674375 
L 842.18125 59.674375 
Q 844.18125 59.674375 844.18125 57.674375 
L 844.18125 29.318125 
Q 844.18125 27.318125 842.18125 27.318125 
L 737.439063 27.318125 
Q 735.439063 27.318125 735.439063 29.318125 
L 735.439063 57.674375 
Q 735.439063 59.674375 737.439063 59.674375 
z
" style="fill: #ffffff; opacity: 0.8; stroke: #cccccc; stroke-linejoin: miter"/>
    </g>
    <g id="line2d_29">
     <path d="M 739.439063 35.416562 
L 749.439063 35.416562 
L 759.439063 35.416562 
" style="fill: none; stroke-dasharray: 5.55,2.4; stroke-dashoffset: 0; stroke: #0000ff; stroke-width: 1.5"/>
    </g>
    <g id="text_31">
     <!-- B(t) - Unstable -->
     <g transform="translate(767.439063 38.916562)scale(0.1 -0.1)">
      <use xlink:href="#DejaVuSans-42"/>
      <use xlink:href="#DejaVuSans-28" x="68.603516"/>
      <use xlink:href="#DejaVuSans-74" x="107.617188"/>
      <use xlink:href="#DejaVuSans-29" x="146.826172"/>
      <use xlink:href="#DejaVuSans-20" x="185.839844"/>
      <use xlink:href="#DejaVuSans-2d" x="217.626953"/>
      <use xlink:href="#DejaVuSans-20" x="253.710938"/>
      <use xlink:href="#DejaVuSans-55" x="285.498047"/>
      <use xlink:href="#DejaVuSans-6e" x="358.691406"/>
      <use xlink:href="#DejaVuSans-73" x="422.070312"/>
      <use xlink:href="#DejaVuSans-74" x="474.169922"/>
      <use xlink:href="#DejaVuSans-61" x="513.378906"/>
      <use xlink:href="#DejaVuSans-62" x="574.658203"/>
      <use xlink:href="#DejaVuSans-6c" x="638.134766"/>
      <use xlink:href="#DejaVuSans-65" x="665.917969"/>
     </g>
    </g>
    <g id="line2d_30">
     <path d="M 739.439063 50.094687 
L 749.439063 50.094687 
L 759.439063 50.094687 
" style="fill: none; stroke-dasharray: 5.55,2.4; stroke-dashoffset: 0; stroke: #008000; stroke-width: 1.5"/>
    </g>
    <g id="text_32">
     <!-- v(t) - Unstable -->
     <g transform="translate(767.439063 53.594687)scale(0.1 -0.1)">
      <use xlink:href="#DejaVuSans-76"/>
      <use xlink:href="#DejaVuSans-28" x="59.179688"/>
      <use xlink:href="#DejaVuSans-74" x="98.193359"/>
      <use xlink:href="#DejaVuSans-29" x="137.402344"/>
      <use xlink:href="#DejaVuSans-20" x="176.416016"/>
      <use xlink:href="#DejaVuSans-2d" x="208.203125"/>
      <use xlink:href="#DejaVuSans-20" x="244.287109"/>
      <use xlink:href="#DejaVuSans-55" x="276.074219"/>
      <use xlink:href="#DejaVuSans-6e" x="349.267578"/>
      <use xlink:href="#DejaVuSans-73" x="412.646484"/>
      <use xlink:href="#DejaVuSans-74" x="464.746094"/>
      <use xlink:href="#DejaVuSans-61" x="503.955078"/>
      <use xlink:href="#DejaVuSans-62" x="565.234375"/>
      <use xlink:href="#DejaVuSans-6c" x="628.710938"/>
      <use xlink:href="#DejaVuSans-65" x="656.494141"/>
     </g>
    </g>
   </g>
  </g>
 </g>
 <defs>
  <clipPath id="pe50d71250c">
   <rect x="43.78125" y="22.318125" width="375.6125" height="363.4"/>
  </clipPath>
  <clipPath id="p35c27c81fd">
   <rect x="473.56875" y="22.318125" width="375.6125" height="363.4"/>
  </clipPath>
 </defs>
</svg>
